<svg xmlns="http://www.w3.org/2000/svg" xmlns:xlink="http://www.w3.org/1999/xlink" width="100" zoomAndPan="magnify" viewBox="0 0 75 74.999997" height="100" preserveAspectRatio="xMidYMid meet" version="1.0"><defs><clipPath id="d7affc3d7e"><path d="M 5.175781 2.023438 L 71.925781 2.023438 L 71.925781 68.773438 L 5.175781 68.773438 Z M 5.175781 2.023438 " clip-rule="nonzero"/></clipPath></defs><g clip-path="url(#d7affc3d7e)"><path fill="#16059c" d="M 18.648438 19.761719 C 18.648438 9.871094 26.699219 1.855469 36.558594 1.855469 C 46.414062 1.855469 54.464844 9.871094 54.464844 19.761719 C 54.464844 21.261719 54.292969 22.730469 53.886719 24.128906 C 53.238281 24.058594 52.589844 24.027344 51.90625 24.027344 C 42.695312 24.027344 34.648438 29.074219 30.417969 36.578125 C 23.5625 34.089844 18.648438 27.503906 18.648438 19.761719 Z M 71.519531 48.757812 C 71.519531 59.574219 62.722656 68.371094 51.90625 68.371094 C 41.089844 68.371094 32.292969 59.574219 32.292969 48.757812 C 32.292969 37.941406 41.089844 29.144531 51.90625 29.144531 C 62.722656 29.144531 71.519531 37.945312 71.519531 48.757812 Z M 61.285156 48.757812 C 61.285156 47.34375 60.140625 46.199219 58.730469 46.199219 L 54.464844 46.199219 L 54.464844 41.933594 C 54.464844 40.523438 53.320312 39.375 51.90625 39.375 C 50.496094 39.375 49.347656 40.523438 49.347656 41.933594 L 49.347656 46.199219 L 45.085938 46.199219 C 43.671875 46.199219 42.527344 47.34375 42.527344 48.757812 C 42.527344 50.167969 43.671875 51.316406 45.085938 51.316406 L 49.347656 51.316406 L 49.347656 55.578125 C 49.347656 56.992188 50.496094 58.136719 51.90625 58.136719 C 53.320312 58.136719 54.464844 56.992188 54.464844 55.578125 L 54.464844 51.316406 L 58.730469 51.316406 C 60.140625 51.316406 61.285156 50.167969 61.285156 48.757812 Z M 27.175781 48.757812 C 27.175781 46.128906 27.585938 43.605469 28.371094 41.253906 C 24.992188 39.988281 22.027344 37.945312 19.671875 35.351562 C 11.007812 39.648438 5.003906 48.652344 5.003906 58.988281 C 5.003906 64.175781 9.199219 68.371094 14.386719 68.371094 L 36.898438 68.371094 C 30.996094 63.867188 27.175781 56.738281 27.175781 48.757812 Z M 27.175781 48.757812 " fill-opacity="1" fill-rule="nonzero"/></g></svg>