<svg width="28" height="28" viewBox="0 0 28 28" fill="none" xmlns="http://www.w3.org/2000/svg">
<path d="M26 14V4C26 3.46957 25.7893 2.96086 25.4142 2.58579C25.0391 2.21071 24.5304 2 24 2H4C3.46957 2 2.96086 2.21071 2.58579 2.58579C2.21071 2.96086 2 3.46957 2 4V24C2 24.5304 2.21071 25.0391 2.58579 25.4142C2.96086 25.7893 3.46957 26 4 26H14" stroke="black" stroke-opacity="0.48" stroke-width="4" stroke-linecap="round" stroke-linejoin="round"/>
<path d="M19.333 23.3335C21.5421 23.3335 23.333 21.5426 23.333 19.3335C23.333 17.1244 21.5421 15.3335 19.333 15.3335C17.1239 15.3335 15.333 17.1244 15.333 19.3335C15.333 21.5426 17.1239 23.3335 19.333 23.3335Z" stroke="black" stroke-opacity="0.48" stroke-width="4"/>
<path d="M22.6663 21.9998L25.9997 24.6665M7.33301 8.6665H20.6663M7.33301 13.9998H12.6663" stroke="black" stroke-opacity="0.48" stroke-width="4" stroke-linecap="round" stroke-linejoin="round"/>
</svg>
