<svg xmlns="http://www.w3.org/2000/svg" xmlns:xlink="http://www.w3.org/1999/xlink" width="100" zoomAndPan="magnify" viewBox="0 0 75 74.999997" height="100" preserveAspectRatio="xMidYMid meet" version="1.0"><defs><clipPath id="6b7ee812bf"><path d="M 43 45 L 70.414062 45 L 70.414062 72.632812 L 43 72.632812 Z M 43 45 " clip-rule="nonzero"/></clipPath></defs><path fill="#16059c" d="M 44.433594 30.789062 C 44.433594 31.308594 44.382812 31.828125 44.277344 32.339844 C 44.175781 32.851562 44.027344 33.351562 43.824219 33.832031 C 43.625 34.316406 43.382812 34.773438 43.089844 35.207031 C 42.800781 35.644531 42.46875 36.046875 42.101562 36.414062 C 41.730469 36.785156 41.328125 37.113281 40.894531 37.402344 C 40.460938 37.695312 40.003906 37.941406 39.519531 38.140625 C 39.035156 38.339844 38.539062 38.492188 38.027344 38.59375 C 37.515625 38.695312 36.996094 38.746094 36.472656 38.746094 C 35.953125 38.746094 35.433594 38.695312 34.921875 38.59375 C 34.410156 38.492188 33.910156 38.339844 33.429688 38.140625 C 32.945312 37.941406 32.488281 37.695312 32.054688 37.402344 C 31.617188 37.113281 31.214844 36.785156 30.847656 36.414062 C 30.476562 36.046875 30.148438 35.644531 29.855469 35.207031 C 29.566406 34.773438 29.320312 34.316406 29.121094 33.832031 C 28.921875 33.351562 28.769531 32.851562 28.667969 32.339844 C 28.566406 31.828125 28.515625 31.308594 28.515625 30.789062 C 28.515625 30.265625 28.566406 29.746094 28.667969 29.234375 C 28.769531 28.722656 28.921875 28.226562 29.121094 27.742188 C 29.320312 27.257812 29.566406 26.800781 29.855469 26.367188 C 30.148438 25.933594 30.476562 25.53125 30.847656 25.160156 C 31.214844 24.789062 31.617188 24.460938 32.054688 24.171875 C 32.488281 23.878906 32.945312 23.636719 33.429688 23.433594 C 33.910156 23.234375 34.410156 23.085938 34.921875 22.984375 C 35.433594 22.878906 35.953125 22.828125 36.472656 22.828125 C 36.996094 22.828125 37.515625 22.878906 38.027344 22.984375 C 38.539062 23.085938 39.035156 23.234375 39.519531 23.433594 C 40.003906 23.636719 40.460938 23.878906 40.894531 24.171875 C 41.328125 24.460938 41.730469 24.789062 42.101562 25.160156 C 42.46875 25.53125 42.800781 25.933594 43.089844 26.367188 C 43.382812 26.800781 43.625 27.257812 43.824219 27.742188 C 44.027344 28.226562 44.175781 28.722656 44.277344 29.234375 C 44.382812 29.746094 44.433594 30.265625 44.433594 30.789062 Z M 44.433594 30.789062 " fill-opacity="1" fill-rule="nonzero"/><path fill="#16059c" d="M 36.882812 43.816406 C 39.691406 43.8125 42.367188 44.402344 44.910156 45.589844 C 43.941406 46.441406 43.074219 47.382812 42.308594 48.421875 C 41.542969 49.457031 40.894531 50.5625 40.363281 51.734375 C 39.832031 52.910156 39.429688 54.125 39.15625 55.386719 C 38.886719 56.644531 38.75 57.917969 38.746094 59.207031 C 38.742188 60.703125 38.925781 62.171875 39.292969 63.621094 C 38.359375 63.710938 37.429688 63.753906 36.472656 63.753906 C 33.265625 63.757812 30.140625 63.246094 27.097656 62.226562 C 24.054688 61.207031 21.253906 59.730469 18.695312 57.796875 C 18.960938 56.804688 19.308594 55.839844 19.734375 54.898438 C 20.15625 53.960938 20.65625 53.066406 21.226562 52.210938 C 21.800781 51.351562 22.4375 50.550781 23.140625 49.796875 C 23.84375 49.046875 24.605469 48.355469 25.421875 47.726562 C 26.238281 47.101562 27.101562 46.542969 28.007812 46.058594 C 28.914062 45.570312 29.855469 45.160156 30.832031 44.828125 C 31.804688 44.496094 32.800781 44.242188 33.816406 44.074219 C 34.832031 43.90625 35.855469 43.816406 36.882812 43.816406 Z M 36.882812 43.816406 " fill-opacity="1" fill-rule="nonzero"/><path fill="#16059c" d="M 66.03125 34.199219 C 66.042969 37.125 65.628906 39.988281 64.78125 42.792969 C 62.300781 41.609375 59.6875 41.019531 56.9375 41.019531 C 54.230469 41.011719 51.652344 41.589844 49.207031 42.746094 C 47.679688 41.808594 46.066406 41.058594 44.363281 40.496094 C 45.035156 39.953125 45.644531 39.347656 46.191406 38.675781 C 46.738281 38.007812 47.210938 37.289062 47.609375 36.523438 C 48.007812 35.757812 48.320312 34.957031 48.554688 34.125 C 48.785156 33.292969 48.929688 32.445312 48.988281 31.582031 C 49.042969 30.71875 49.011719 29.863281 48.890625 29.007812 C 48.769531 28.152344 48.5625 27.316406 48.269531 26.503906 C 47.976562 25.691406 47.605469 24.917969 47.148438 24.183594 C 46.695312 23.445312 46.171875 22.765625 45.578125 22.136719 C 44.984375 21.511719 44.332031 20.953125 43.621094 20.460938 C 42.910156 19.96875 42.15625 19.554688 41.359375 19.21875 C 40.5625 18.882812 39.742188 18.632812 38.894531 18.464844 C 38.046875 18.300781 37.191406 18.222656 36.328125 18.234375 C 35.460938 18.246094 34.609375 18.347656 33.765625 18.535156 C 32.921875 18.722656 32.105469 18.996094 31.320312 19.351562 C 30.53125 19.707031 29.792969 20.140625 29.09375 20.652344 C 28.398438 21.164062 27.757812 21.738281 27.179688 22.382812 C 26.601562 23.023438 26.097656 23.71875 25.664062 24.464844 C 25.230469 25.210938 24.875 25.996094 24.605469 26.816406 C 24.332031 27.636719 24.148438 28.476562 24.050781 29.335938 C 23.953125 30.191406 23.941406 31.050781 24.023438 31.914062 C 24.101562 32.773438 24.269531 33.617188 24.523438 34.441406 C 24.777344 35.269531 25.113281 36.058594 25.53125 36.816406 C 25.949219 37.570312 26.441406 38.277344 27.003906 38.929688 C 27.570312 39.585938 28.195312 40.175781 28.878906 40.699219 C 27.296875 41.28125 25.792969 42.023438 24.371094 42.929688 C 22.945312 43.832031 21.636719 44.878906 20.4375 46.066406 C 19.238281 47.253906 18.179688 48.554688 17.261719 49.96875 C 16.34375 51.382812 15.585938 52.878906 14.988281 54.457031 C 14.574219 54.019531 14.179688 53.570312 13.792969 53.109375 C 13.410156 52.648438 13.039062 52.175781 12.683594 51.695312 C 12.328125 51.210938 11.988281 50.71875 11.664062 50.210938 C 11.335938 49.707031 11.027344 49.195312 10.734375 48.671875 C 10.4375 48.148438 10.160156 47.617188 9.898438 47.078125 C 9.636719 46.539062 9.390625 45.992188 9.164062 45.4375 C 8.933594 44.878906 8.722656 44.320312 8.53125 43.75 C 8.335938 43.183594 8.160156 42.609375 8 42.03125 C 7.839844 41.453125 7.699219 40.871094 7.574219 40.285156 C 7.449219 39.695312 7.34375 39.105469 7.257812 38.511719 C 7.167969 37.917969 7.097656 37.324219 7.046875 36.726562 C 6.996094 36.128906 6.964844 35.527344 6.949219 34.929688 C 6.933594 34.328125 6.9375 33.730469 6.957031 33.128906 C 6.980469 32.53125 7.019531 31.933594 7.078125 31.335938 C 7.132812 30.738281 7.210938 30.144531 7.304688 29.550781 C 7.398438 28.957031 7.511719 28.367188 7.640625 27.78125 C 7.769531 27.195312 7.917969 26.617188 8.085938 26.039062 C 8.25 25.460938 8.433594 24.890625 8.632812 24.324219 C 8.832031 23.757812 9.050781 23.199219 9.285156 22.648438 C 9.519531 22.09375 9.769531 21.550781 10.039062 21.015625 C 10.304688 20.476562 10.589844 19.949219 10.886719 19.429688 C 11.1875 18.910156 11.503906 18.398438 11.835938 17.898438 C 12.164062 17.398438 12.511719 16.90625 12.871094 16.425781 C 13.230469 15.949219 13.605469 15.480469 13.996094 15.023438 C 14.386719 14.566406 14.789062 14.121094 15.203125 13.691406 C 15.621094 13.257812 16.050781 12.839844 16.492188 12.433594 C 16.933594 12.027344 17.386719 11.632812 17.851562 11.253906 C 18.320312 10.878906 18.796875 10.511719 19.28125 10.164062 C 19.769531 9.816406 20.269531 9.480469 20.777344 9.160156 C 21.285156 8.84375 21.804688 8.539062 22.328125 8.25 C 22.855469 7.964844 23.390625 7.691406 23.933594 7.4375 C 24.476562 7.183594 25.027344 6.945312 25.585938 6.722656 C 26.144531 6.503906 26.707031 6.296875 27.277344 6.113281 C 27.847656 5.925781 28.421875 5.753906 29.003906 5.601562 C 29.585938 5.449219 30.167969 5.316406 30.757812 5.199219 C 31.347656 5.085938 31.9375 4.984375 32.53125 4.90625 C 33.125 4.824219 33.722656 4.761719 34.320312 4.71875 C 34.921875 4.675781 35.519531 4.648438 36.121094 4.640625 C 36.71875 4.636719 37.320312 4.644531 37.917969 4.675781 C 38.519531 4.703125 39.117188 4.75 39.710938 4.816406 C 40.308594 4.882812 40.902344 4.964844 41.492188 5.066406 C 42.085938 5.167969 42.671875 5.289062 43.257812 5.425781 C 43.839844 5.5625 44.421875 5.71875 44.996094 5.890625 C 45.570312 6.066406 46.136719 6.253906 46.703125 6.460938 C 47.265625 6.671875 47.820312 6.894531 48.371094 7.136719 C 48.917969 7.378906 49.460938 7.636719 49.996094 7.910156 C 50.527344 8.183594 51.054688 8.472656 51.570312 8.78125 C 52.085938 9.085938 52.589844 9.410156 53.085938 9.746094 C 53.582031 10.082031 54.070312 10.433594 54.542969 10.800781 C 55.019531 11.167969 55.484375 11.550781 55.933594 11.945312 C 56.386719 12.339844 56.824219 12.746094 57.253906 13.167969 C 57.679688 13.589844 58.09375 14.023438 58.492188 14.472656 C 58.894531 14.917969 59.28125 15.378906 59.652344 15.847656 C 60.023438 16.320312 60.382812 16.800781 60.726562 17.292969 C 61.070312 17.785156 61.394531 18.285156 61.707031 18.800781 C 62.019531 19.3125 62.316406 19.832031 62.597656 20.363281 C 62.878906 20.894531 63.144531 21.433594 63.390625 21.976562 C 63.640625 22.523438 63.871094 23.078125 64.085938 23.636719 C 64.300781 24.199219 64.496094 24.765625 64.675781 25.339844 C 64.855469 25.910156 65.015625 26.488281 65.160156 27.070312 C 65.304688 27.652344 65.433594 28.238281 65.542969 28.828125 C 65.652344 29.417969 65.742188 30.011719 65.8125 30.609375 C 65.886719 31.203125 65.941406 31.800781 65.976562 32.398438 C 66.015625 33 66.03125 33.597656 66.03125 34.199219 Z M 66.03125 34.199219 " fill-opacity="1" fill-rule="nonzero"/><g clip-path="url(#6b7ee812bf)"><path fill="#16059c" d="M 56.9375 45.566406 C 56.042969 45.566406 55.152344 45.652344 54.277344 45.828125 C 53.398438 46.003906 52.542969 46.261719 51.714844 46.605469 C 50.890625 46.949219 50.101562 47.367188 49.359375 47.867188 C 48.613281 48.363281 47.925781 48.929688 47.289062 49.5625 C 46.65625 50.195312 46.09375 50.882812 45.59375 51.628906 C 45.097656 52.375 44.675781 53.160156 44.332031 53.988281 C 43.992188 54.816406 43.730469 55.667969 43.558594 56.546875 C 43.382812 57.425781 43.296875 58.3125 43.296875 59.207031 C 43.296875 60.105469 43.382812 60.992188 43.558594 61.871094 C 43.730469 62.75 43.992188 63.601562 44.332031 64.429688 C 44.675781 65.257812 45.097656 66.042969 45.59375 66.789062 C 46.09375 67.53125 46.65625 68.222656 47.289062 68.855469 C 47.925781 69.488281 48.613281 70.054688 49.359375 70.550781 C 50.101562 71.050781 50.890625 71.46875 51.714844 71.8125 C 52.542969 72.15625 53.398438 72.414062 54.277344 72.589844 C 55.152344 72.761719 56.042969 72.851562 56.9375 72.851562 C 57.832031 72.851562 58.71875 72.761719 59.597656 72.589844 C 60.476562 72.414062 61.332031 72.15625 62.15625 71.8125 C 62.984375 71.46875 63.769531 71.050781 64.515625 70.550781 C 65.261719 70.054688 65.949219 69.488281 66.582031 68.855469 C 67.21875 68.222656 67.78125 67.53125 68.28125 66.789062 C 68.777344 66.042969 69.199219 65.257812 69.539062 64.429688 C 69.882812 63.601562 70.140625 62.75 70.316406 61.871094 C 70.492188 60.992188 70.578125 60.105469 70.578125 59.207031 C 70.578125 58.3125 70.492188 57.425781 70.316406 56.546875 C 70.140625 55.667969 69.882812 54.816406 69.539062 53.988281 C 69.199219 53.160156 68.777344 52.375 68.28125 51.628906 C 67.78125 50.882812 67.21875 50.195312 66.582031 49.5625 C 65.949219 48.929688 65.261719 48.363281 64.515625 47.867188 C 63.769531 47.367188 62.984375 46.949219 62.15625 46.605469 C 61.332031 46.261719 60.476562 46.003906 59.597656 45.828125 C 58.71875 45.652344 57.832031 45.566406 56.9375 45.566406 Z M 61.484375 61.480469 L 52.390625 61.480469 C 52.089844 61.480469 51.796875 61.425781 51.519531 61.308594 C 51.242188 61.195312 50.996094 61.03125 50.78125 60.816406 C 50.570312 60.601562 50.40625 60.355469 50.289062 60.078125 C 50.171875 59.800781 50.117188 59.511719 50.117188 59.207031 C 50.117188 58.90625 50.171875 58.617188 50.289062 58.339844 C 50.40625 58.058594 50.570312 57.8125 50.78125 57.601562 C 50.996094 57.386719 51.242188 57.222656 51.519531 57.109375 C 51.796875 56.992188 52.089844 56.933594 52.390625 56.933594 L 61.484375 56.933594 C 61.785156 56.933594 62.074219 56.992188 62.355469 57.109375 C 62.632812 57.222656 62.878906 57.386719 63.09375 57.601562 C 63.304688 57.8125 63.46875 58.058594 63.585938 58.339844 C 63.699219 58.617188 63.757812 58.90625 63.757812 59.207031 C 63.757812 59.511719 63.699219 59.800781 63.585938 60.078125 C 63.46875 60.355469 63.304688 60.601562 63.09375 60.816406 C 62.878906 61.03125 62.632812 61.195312 62.355469 61.308594 C 62.074219 61.425781 61.785156 61.480469 61.484375 61.480469 Z M 61.484375 61.480469 " fill-opacity="1" fill-rule="nonzero"/></g></svg>