<svg width="265" height="253" viewBox="0 0 265 253" fill="none" xmlns="http://www.w3.org/2000/svg">
<path d="M49.5219 40.5947L62.1059 47.855L59.6172 49.2915L47.0332 42.0312L49.5219 40.5947Z" fill="#41AAFF"/>
<path d="M59.6172 117.282L97.0738 95.6688V27.678L59.6172 49.2915V117.282Z" fill="#41AAFF"/>
<path d="M47.0332 110.022L59.6172 117.282V49.2915L47.0332 42.0312V110.022Z" fill="#1C5047"/>
<path d="M49.3491 88.3659L57.2999 92.9539V63.1395L49.3491 58.5515V88.3659Z" fill="#DFEAED"/>
<path d="M57.1255 47.8552L94.5821 26.2417L97.0708 27.6782L59.609 49.2916L57.1255 47.8552Z" fill="#41AAFF"/>
<path d="M47.0332 42.0323L84.4899 20.4126L86.9786 21.8491L49.5219 43.4677L47.0332 42.0323Z" fill="#41AAFF"/>
<path d="M49.8882 100.048C49.952 101.239 50.2961 102.399 50.8924 103.433C51.4887 104.466 52.3205 105.345 53.3202 105.997C55.2182 107.092 56.7522 106.204 56.7522 104.013C56.6884 102.822 56.3443 101.662 55.748 100.629C55.1517 99.5953 54.3199 98.7169 53.3202 98.0648C51.4253 96.9703 49.8882 97.8569 49.8882 100.048Z" fill="#DFEAED"/>
<path d="M86.9797 21.8542V30.6289L59.6152 46.4186L52.0117 42.0313L86.9797 21.8542Z" fill="#1C5047"/>
<path d="M91.6399 27.942L84.0364 23.5547L52.0117 42.0333L59.6152 46.4207L91.6399 27.942Z" fill="#DFEAED"/>
<path d="M62.1049 47.855L74.6889 55.1153L72.2012 56.5517L59.6172 49.2914L62.1049 47.855Z" fill="#41AAFF"/>
<path d="M72.1973 124.543L109.654 102.929V34.9382L72.1973 56.5496V124.543Z" fill="#41AAFF"/>
<path d="M59.6172 117.282L72.2012 124.543V56.5508L59.6172 49.2905V117.282Z" fill="#267267"/>
<path d="M61.9312 95.6261L69.8819 100.214V70.4007L61.9312 65.8127V95.6261Z" fill="#DFEAED"/>
<path d="M69.707 55.1152L107.164 33.5017L109.652 34.9382L72.1968 56.5537L69.707 55.1152Z" fill="#41AAFF"/>
<path d="M59.6172 49.2915L97.0738 27.678L99.5625 29.1144L62.1059 50.7279L59.6172 49.2915Z" fill="#41AAFF"/>
<path d="M62.4688 107.305C62.5331 108.496 62.8773 109.656 63.4736 110.689C64.0699 111.723 64.9014 112.601 65.9007 113.253C67.7987 114.349 69.3328 113.461 69.3328 111.27C69.2689 110.079 68.9249 108.919 68.3286 107.886C67.7322 106.852 66.9005 105.974 65.9007 105.322C64.0069 104.23 62.4688 105.122 62.4688 107.305Z" fill="#DFEAED"/>
<path d="M99.5666 29.1145V37.8892L72.2021 53.6788L64.5986 49.2915L99.5666 29.1145Z" fill="#41AAFF"/>
<path d="M104.223 35.2001L96.6194 30.8127L64.5947 49.2914L72.1982 53.6787L104.223 35.2001Z" fill="#DFEAED"/>
<path d="M220.677 153.082L216.924 155.264C217.305 154.995 217.608 154.629 217.801 154.205C217.995 153.78 218.072 153.312 218.025 152.848L221.777 150.665C221.824 151.129 221.747 151.597 221.554 152.022C221.36 152.447 221.058 152.812 220.677 153.082Z" fill="#A5B7C6"/>
<path d="M110.2 2.42776L113.953 0.245005C114.384 0.046186 114.86 -0.0338905 115.333 0.0130745C115.805 0.0600394 116.256 0.232336 116.64 0.512129L112.888 2.69489C112.504 2.41509 112.053 2.2428 111.58 2.19584C111.108 2.14887 110.631 2.22894 110.2 2.42776Z" fill="#A5B7C6"/>
<path d="M218.234 67.8231L221.987 65.6404L221.779 150.664L218.026 152.847L218.234 67.8231Z" fill="#C3D3DD"/>
<path d="M112.888 2.69594L116.64 0.513184L218.226 59.1358L214.474 61.3186L112.888 2.69594Z" fill="#A5B7C6"/>
<path d="M214.474 61.3134L218.226 59.1306C219.322 59.843 220.234 60.804 220.887 61.9355C221.541 63.067 221.917 64.3368 221.987 65.6415L218.234 67.8242C218.165 66.5196 217.788 65.2498 217.135 64.1183C216.481 62.9868 215.569 62.0257 214.474 61.3134Z" fill="#C3D3DD"/>
<path d="M214.474 61.3133C215.57 62.0255 216.481 62.9865 217.135 64.1178C217.788 65.249 218.165 66.5187 218.234 67.8231L218.026 152.847C218.02 155.248 216.315 156.199 214.241 155.003L112.655 96.3798C111.557 95.6692 110.644 94.7085 109.991 93.5766C109.337 92.4448 108.961 91.1741 108.894 89.869L109.102 4.84533C109.108 2.44429 110.797 1.48284 112.888 2.6896L214.474 61.3133Z" fill="#1D262D"/>
<path d="M112.864 11.2429L112.678 87.8328L214.264 146.455L214.45 69.8666L112.864 11.2429Z" fill="#41AAFF"/>
<path d="M215.802 157.193L215.79 161.53C215.748 161.994 215.583 162.439 215.313 162.819C215.043 163.199 214.676 163.5 214.251 163.692L214.264 159.355C214.689 159.162 215.055 158.861 215.325 158.481C215.595 158.101 215.76 157.657 215.802 157.193Z" fill="#C3D3DD"/>
<path d="M141.446 201.543L141.433 205.881C140.268 206.471 138.979 206.778 137.672 206.778C136.365 206.778 135.077 206.471 133.911 205.881L133.924 201.543C135.089 202.134 136.378 202.441 137.685 202.441C138.992 202.441 140.28 202.134 141.446 201.543Z" fill="#758D9E"/>
<path d="M30.7568 145.072L30.7683 140.735C30.8107 141.206 30.9786 141.658 31.2545 142.044C31.5304 142.429 31.9044 142.733 32.3377 142.926L32.3252 147.263C31.892 147.071 31.5181 146.766 31.2424 146.381C30.9666 145.996 30.799 145.544 30.7568 145.072Z" fill="#758D9E"/>
<path d="M214.264 159.354L214.251 163.692L141.434 205.879L141.446 201.542L214.264 159.354Z" fill="#C3D3DD"/>
<path d="M133.924 201.543L133.911 205.881L32.3252 147.258L32.3377 142.92L133.924 201.543Z" fill="#758D9E"/>
<path d="M214.24 154.999C216.313 156.196 216.32 158.157 214.264 159.355L141.446 201.542C140.28 202.133 138.992 202.44 137.685 202.44C136.378 202.44 135.089 202.133 133.924 201.542L32.3374 142.919C30.247 141.714 30.2574 139.762 32.3135 138.565L105.131 96.3768C106.296 95.7845 107.585 95.4758 108.892 95.4758C110.2 95.4758 111.488 95.7845 112.653 96.3768L214.24 154.999Z" fill="#A5B7C6"/>
<path d="M131.825 165.989L94.385 144.384C93.8029 144.086 93.1585 143.931 92.5047 143.931C91.851 143.931 91.2065 144.086 90.6244 144.384L71.2804 155.512C71.0527 155.59 70.8554 155.738 70.7161 155.935C70.5769 156.131 70.5027 156.367 70.5039 156.607C70.5052 156.848 70.5819 157.082 70.7232 157.277C70.8645 157.472 71.0634 157.618 71.2919 157.695L108.732 179.3C109.314 179.597 109.958 179.752 110.612 179.752C111.266 179.752 111.91 179.597 112.492 179.3L131.836 168.171C132.884 167.563 132.877 166.602 131.824 165.994" fill="#C3D3DD"/>
<path d="M113.771 103.007V104.091L106.932 108.063V106.979L113.771 103.007Z" fill="#455B68"/>
<path d="M106.932 106.976V108.06L100.201 104.177V103.093L106.932 106.976Z" fill="#1D262D"/>
<path d="M113.77 103.007L106.931 106.979L100.2 103.096L107.039 99.124L113.77 103.007Z" fill="#37454F"/>
<path d="M122.408 107.99V109.074L115.569 113.046V111.962L122.408 107.99Z" fill="#455B68"/>
<path d="M115.565 111.962V113.046L108.817 109.152V108.068L115.565 111.962Z" fill="#1D262D"/>
<path d="M122.405 107.99L115.566 111.962L108.818 108.068L115.657 104.096L122.405 107.99Z" fill="#37454F"/>
<path d="M131.022 112.962V114.046L124.183 118.017V116.933L131.022 112.962Z" fill="#455B68"/>
<path d="M124.182 116.934V118.018L117.453 114.135V113.051L124.182 116.934Z" fill="#1D262D"/>
<path d="M131.023 112.962L124.184 116.933L117.453 113.05L124.292 109.078L131.023 112.962Z" fill="#37454F"/>
<path d="M139.638 117.934V119.018L132.799 122.99V121.906L139.638 117.934Z" fill="#455B68"/>
<path d="M132.799 121.906V122.99L126.067 119.107V118.022L132.799 121.906Z" fill="#1D262D"/>
<path d="M139.639 117.935L132.8 121.907L126.066 118.024L132.905 114.052L139.639 117.935Z" fill="#37454F"/>
<path d="M148.257 122.906V123.99L141.417 127.961V126.877L148.257 122.906Z" fill="#455B68"/>
<path d="M141.416 126.882V127.967L134.686 124.083V122.999L141.416 126.882Z" fill="#1D262D"/>
<path d="M148.255 122.907L141.416 126.878L134.686 122.995L141.525 119.023L148.255 122.907Z" fill="#37454F"/>
<path d="M156.89 127.888V128.972L150.051 132.943V131.859L156.89 127.888Z" fill="#455B68"/>
<path d="M150.051 131.859V132.943L143.32 129.06V127.976L150.051 131.859Z" fill="#1D262D"/>
<path d="M156.892 127.889L150.053 131.86L143.322 127.977L150.161 124.005L156.892 127.889Z" fill="#37454F"/>
<path d="M165.508 132.86V133.944L158.669 137.916V136.832L165.508 132.86Z" fill="#455B68"/>
<path d="M158.669 136.833V137.917L151.938 134.034V132.949L158.669 136.833Z" fill="#1D262D"/>
<path d="M165.507 132.858L158.668 136.83L151.937 132.946L158.776 128.975L165.507 132.858Z" fill="#37454F"/>
<path d="M174.123 137.833V138.917L167.284 142.888V141.804L174.123 137.833Z" fill="#455B68"/>
<path d="M167.285 141.805V142.889L160.554 139.006V137.922L167.285 141.805Z" fill="#1D262D"/>
<path d="M174.124 137.833L167.285 141.804L160.554 137.921L167.393 133.949L174.124 137.833Z" fill="#37454F"/>
<path d="M182.758 142.815V143.9L175.919 147.871V146.787L182.758 142.815Z" fill="#455B68"/>
<path d="M175.919 146.79V147.874L169.172 143.981V142.896L175.919 146.79Z" fill="#1D262D"/>
<path d="M182.758 142.816L175.919 146.787L169.172 142.893L176.011 138.918L182.758 142.816Z" fill="#37454F"/>
<path d="M191.375 147.787V148.871L184.536 152.843V151.759L191.375 147.787Z" fill="#455B68"/>
<path d="M184.536 151.759V152.843L177.805 148.96V147.875L184.536 151.759Z" fill="#1D262D"/>
<path d="M191.376 147.787L184.537 151.759L177.806 147.875L184.645 143.904L191.376 147.787Z" fill="#37454F"/>
<path d="M208.627 157.741V158.826L201.788 162.797V161.713L208.627 157.741Z" fill="#455B68"/>
<path d="M201.788 161.712V162.796L186.424 153.93V152.846L201.788 161.712Z" fill="#1D262D"/>
<path d="M208.625 157.741L201.786 161.713L186.421 152.847L193.26 148.875L208.625 157.741Z" fill="#37454F"/>
<path d="M113.691 113.051V114.135L106.87 118.097V117.013L113.691 113.051Z" fill="#455B68"/>
<path d="M106.868 117.012V118.096L91.5034 109.23V108.146L106.868 117.012Z" fill="#1D262D"/>
<path d="M113.691 113.051L106.869 117.013L91.5044 108.147L98.3258 104.185L113.691 113.051Z" fill="#37454F"/>
<path d="M122.308 118.023V119.107L115.487 123.069V121.985L122.308 118.023Z" fill="#455B68"/>
<path d="M115.487 121.986V123.07L108.756 119.187V118.103L115.487 121.986Z" fill="#1D262D"/>
<path d="M122.308 118.023L115.487 121.985L108.756 118.102L115.577 114.139L122.308 118.023Z" fill="#37454F"/>
<path d="M130.925 122.994V124.078L124.103 128.04V126.956L130.925 122.994Z" fill="#455B68"/>
<path d="M124.104 126.957V128.042L117.373 124.158V123.074L124.104 126.957Z" fill="#1D262D"/>
<path d="M130.921 122.994L124.1 126.956L117.369 123.073L124.192 119.111L130.921 122.994Z" fill="#37454F"/>
<path d="M139.543 127.967V129.051L132.722 133.013V131.929L139.543 127.967Z" fill="#455B68"/>
<path d="M132.721 131.929V133.013L125.99 129.13V128.045L132.721 131.929Z" fill="#1D262D"/>
<path d="M139.542 127.967L132.72 131.929L125.989 128.045L132.81 124.083L139.542 127.967Z" fill="#37454F"/>
<path d="M148.176 132.948V134.033L141.355 137.995V136.911L148.176 132.948Z" fill="#455B68"/>
<path d="M141.355 136.911V137.995L134.624 134.111V133.027L141.355 136.911Z" fill="#1D262D"/>
<path d="M148.176 132.949L141.355 136.912L134.625 133.028L141.446 129.065L148.176 132.949Z" fill="#37454F"/>
<path d="M156.794 137.921V139.005L149.972 142.967V141.883L156.794 137.921Z" fill="#455B68"/>
<path d="M149.972 141.883V142.967L143.241 139.084V138L149.972 141.883Z" fill="#1D262D"/>
<path d="M156.793 137.922L149.972 141.884L143.241 138.001L150.063 134.039L156.793 137.922Z" fill="#37454F"/>
<path d="M165.41 142.893V143.977L158.588 147.94V146.856L165.41 142.893Z" fill="#455B68"/>
<path d="M158.588 146.856V147.94L151.858 144.057V142.972L158.588 146.856Z" fill="#1D262D"/>
<path d="M165.41 142.894L158.589 146.857L151.858 142.973L158.68 139.011L165.41 142.894Z" fill="#37454F"/>
<path d="M174.044 147.875V148.959L167.223 152.922V151.837L174.044 147.875Z" fill="#455B68"/>
<path d="M167.223 151.837V152.922L160.475 149.028V147.944L167.223 151.837Z" fill="#1D262D"/>
<path d="M174.047 147.875L167.226 151.838L160.478 147.944L167.299 143.982L174.047 147.875Z" fill="#37454F"/>
<path d="M182.663 152.844V153.928L175.84 157.89V156.806L182.663 152.844Z" fill="#455B68"/>
<path d="M175.84 156.811V157.895L169.109 154.012V152.928L175.84 156.811Z" fill="#1D262D"/>
<path d="M182.662 152.848L175.839 156.81L169.108 152.927L175.93 148.965L182.662 152.848Z" fill="#37454F"/>
<path d="M191.28 157.82V158.904L184.458 162.866V161.782L191.28 157.82Z" fill="#455B68"/>
<path d="M184.457 161.782V162.866L177.727 158.983V157.898L184.457 161.782Z" fill="#1D262D"/>
<path d="M191.279 157.823L184.457 161.785L177.726 157.902L184.547 153.939L191.279 157.823Z" fill="#37454F"/>
<path d="M199.912 162.802V163.886L193.091 167.849V166.764L199.912 162.802Z" fill="#455B68"/>
<path d="M193.09 166.765V167.849L186.338 163.95V162.866L193.09 166.765Z" fill="#1D262D"/>
<path d="M199.913 162.802L193.09 166.765L186.343 162.871L193.165 158.909L199.913 162.802Z" fill="#37454F"/>
<path d="M104.997 118.102V119.186L98.1753 123.148V122.064L104.997 118.102Z" fill="#455B68"/>
<path d="M98.1741 122.063V123.147L82.8091 114.282V113.198L98.1741 122.063Z" fill="#1D262D"/>
<path d="M104.995 118.102L98.174 122.064L82.8091 113.198L89.6315 109.235L104.995 118.102Z" fill="#37454F"/>
<path d="M113.613 123.073V124.157L106.792 128.119V127.035L113.613 123.073Z" fill="#455B68"/>
<path d="M106.788 127.035V128.119L100.058 124.236V123.152L106.788 127.035Z" fill="#1D262D"/>
<path d="M113.612 123.071L106.789 127.033L100.059 123.15L106.881 119.188L113.612 123.071Z" fill="#37454F"/>
<path d="M122.229 128.045V129.13L115.407 133.092V132.008L122.229 128.045Z" fill="#455B68"/>
<path d="M115.407 132.005V133.089L108.676 129.205V128.121L115.407 132.005Z" fill="#1D262D"/>
<path d="M122.229 128.047L115.408 132.009L108.677 128.126L115.499 124.163L122.229 128.047Z" fill="#37454F"/>
<path d="M130.847 133.017V134.101L124.025 138.063V136.979L130.847 133.017Z" fill="#455B68"/>
<path d="M124.025 136.98V138.064L117.294 134.181V133.097L124.025 136.98Z" fill="#1D262D"/>
<path d="M130.847 133.017L124.025 136.979L117.294 133.096L124.116 129.134L130.847 133.017Z" fill="#37454F"/>
<path d="M139.481 137.998V139.082L132.659 143.044V141.96L139.481 137.998Z" fill="#455B68"/>
<path d="M132.659 141.962V143.046L125.928 139.163V138.079L132.659 141.962Z" fill="#1D262D"/>
<path d="M139.481 137.999L132.658 141.961L125.927 138.078L132.749 134.116L139.481 137.999Z" fill="#37454F"/>
<path d="M148.101 142.971V144.056L141.279 148.018V146.934L148.101 142.971Z" fill="#455B68"/>
<path d="M141.276 146.934V148.018L134.545 144.134V143.05L141.276 146.934Z" fill="#1D262D"/>
<path d="M148.097 142.971L141.276 146.934L134.546 143.05L141.367 139.088L148.097 142.971Z" fill="#37454F"/>
<path d="M156.716 147.944V149.028L149.895 152.99V151.906L156.716 147.944Z" fill="#455B68"/>
<path d="M149.893 151.911V152.995L143.155 149.105V148.021L149.893 151.911Z" fill="#1D262D"/>
<path d="M156.715 147.945L149.894 151.907L143.163 148.024L149.985 144.062L156.715 147.945Z" fill="#37454F"/>
<path d="M165.349 152.927V154.011L158.527 157.973V156.889L165.349 152.927Z" fill="#455B68"/>
<path d="M158.526 156.889V157.973L151.779 154.079V152.995L158.526 156.889Z" fill="#1D262D"/>
<path d="M165.348 152.927L158.526 156.889L151.779 152.995L158.6 149.033L165.348 152.927Z" fill="#37454F"/>
<path d="M173.965 157.898V158.983L167.143 162.945V161.861L173.965 157.898Z" fill="#455B68"/>
<path d="M167.143 161.862V162.946L160.413 159.063V157.979L167.143 161.862Z" fill="#1D262D"/>
<path d="M173.965 157.898L167.143 161.861L160.413 157.977L167.234 154.015L173.965 157.898Z" fill="#37454F"/>
<path d="M191.218 167.852V168.936L184.396 172.898V171.814L191.218 167.852Z" fill="#455B68"/>
<path d="M184.395 171.815V172.899L169.03 164.033V162.949L184.395 171.815Z" fill="#1D262D"/>
<path d="M191.218 167.852L184.396 171.814L169.031 162.948L175.853 158.986L191.218 167.852Z" fill="#37454F"/>
<path d="M104.917 128.124V129.208L98.0952 133.17V132.086L104.917 128.124Z" fill="#455B68"/>
<path d="M98.0941 132.087V133.171L74.1128 119.333V118.249L98.0941 132.087Z" fill="#1D262D"/>
<path d="M104.917 128.124L98.0951 132.086L74.1138 118.248L80.9362 114.286L104.917 128.124Z" fill="#37454F"/>
<path d="M113.533 133.096V134.18L106.711 138.142V137.058L113.533 133.096Z" fill="#455B68"/>
<path d="M106.711 137.058V138.142L99.9805 134.259V133.175L106.711 137.058Z" fill="#1D262D"/>
<path d="M113.533 133.097L106.711 137.059L99.9805 133.176L106.803 129.214L113.533 133.097Z" fill="#37454F"/>
<path d="M122.151 138.069V139.153L115.329 143.115V142.031L122.151 138.069Z" fill="#455B68"/>
<path d="M115.329 142.031V143.115L108.598 139.232V138.148L115.329 142.031Z" fill="#1D262D"/>
<path d="M122.15 138.07L115.329 142.032L108.599 138.149L115.42 134.187L122.15 138.07Z" fill="#37454F"/>
<path d="M130.784 143.051V144.135L123.962 148.097V147.013L130.784 143.051Z" fill="#455B68"/>
<path d="M123.962 147.014V148.098L117.232 144.215V143.131L123.962 147.014Z" fill="#1D262D"/>
<path d="M130.784 143.05L123.963 147.013L117.232 143.129L124.053 139.167L130.784 143.05Z" fill="#37454F"/>
<path d="M139.4 148.022V149.106L132.579 153.068V151.984L139.4 148.022Z" fill="#455B68"/>
<path d="M132.578 151.985V153.069L125.847 149.186V148.102L132.578 151.985Z" fill="#1D262D"/>
<path d="M139.401 148.022L132.579 151.984L125.848 148.101L132.669 144.139L139.401 148.022Z" fill="#37454F"/>
<path d="M148.018 152.995V154.079L141.197 158.041V156.957L148.018 152.995Z" fill="#455B68"/>
<path d="M141.197 156.957V158.041L134.466 154.158V153.073L141.197 156.957Z" fill="#1D262D"/>
<path d="M148.018 152.995L141.197 156.957L134.466 153.074L141.287 149.111L148.018 152.995Z" fill="#37454F"/>
<path d="M156.652 157.977V159.061L149.831 163.024V161.94L156.652 157.977Z" fill="#455B68"/>
<path d="M149.831 161.94V163.024L143.083 159.13V158.046L149.831 161.94Z" fill="#1D262D"/>
<path d="M156.652 157.977L149.831 161.94L143.083 158.046L149.906 154.084L156.652 157.977Z" fill="#37454F"/>
<path d="M165.271 162.949V164.033L158.448 167.995V166.911L165.271 162.949Z" fill="#455B68"/>
<path d="M158.448 166.911V167.995L151.717 164.112V163.028L158.448 166.911Z" fill="#1D262D"/>
<path d="M165.27 162.95L158.447 166.912L151.716 163.029L158.539 159.067L165.27 162.95Z" fill="#37454F"/>
<path d="M182.522 172.905V173.989L175.7 177.951V176.867L182.522 172.905Z" fill="#455B68"/>
<path d="M175.699 176.867V177.951L160.334 169.085V168L175.699 176.867Z" fill="#1D262D"/>
<path d="M182.52 172.904L175.699 176.867L160.334 168.001L167.156 164.038L182.52 172.904Z" fill="#37454F"/>
<path d="M78.9694 123.218V124.302L72.1304 128.273V127.189L78.9694 123.218Z" fill="#455B68"/>
<path d="M72.1303 127.192V128.276L65.3994 124.393V123.309L72.1303 127.192Z" fill="#1D262D"/>
<path d="M78.9684 123.221L72.1293 127.192L65.3984 123.309L72.2375 119.337L78.9684 123.221Z" fill="#37454F"/>
<path d="M87.6037 128.202V129.286L80.7646 133.258V132.174L87.6037 128.202Z" fill="#455B68"/>
<path d="M80.7688 132.174V133.258L74.0088 129.366V128.281L80.7688 132.174Z" fill="#1D262D"/>
<path d="M87.6036 128.202L80.7646 132.174L74.0171 128.28L80.8562 124.309L87.6036 128.202Z" fill="#37454F"/>
<path d="M96.2199 133.174V134.258L89.3809 138.23V137.146L96.2199 133.174Z" fill="#455B68"/>
<path d="M89.3808 137.147V138.231L82.6499 134.348V133.263L89.3808 137.147Z" fill="#1D262D"/>
<path d="M96.2208 133.174L89.3817 137.146L82.6509 133.262L89.4899 129.291L96.2208 133.174Z" fill="#37454F"/>
<path d="M139.32 158.046V159.13L132.481 163.102V162.018L139.32 158.046Z" fill="#455B68"/>
<path d="M132.482 162.017V163.101L91.2642 139.316V138.232L132.482 162.017Z" fill="#1D262D"/>
<path d="M139.321 158.046L132.482 162.018L91.2671 138.235L98.1061 134.263L139.321 158.046Z" fill="#37454F"/>
<path d="M147.956 163.027V164.111L141.117 168.083V166.998L147.956 163.027Z" fill="#455B68"/>
<path d="M141.118 167V168.084L134.37 164.19V163.106L141.118 167Z" fill="#1D262D"/>
<path d="M147.96 163.028L141.121 167L134.373 163.106L141.212 159.134L147.96 163.028Z" fill="#37454F"/>
<path d="M156.574 168V169.084L149.728 173.056V171.972L156.574 168Z" fill="#455B68"/>
<path d="M149.734 171.972V173.056L143.003 169.173V168.089L149.734 171.972Z" fill="#1D262D"/>
<path d="M156.573 167.999L149.734 171.971L143.003 168.088L149.842 164.116L156.573 167.999Z" fill="#37454F"/>
<path d="M173.825 177.955V179.039L166.986 183.011V181.926L173.825 177.955Z" fill="#455B68"/>
<path d="M166.986 181.922V183.006L151.621 174.14V173.056L166.986 181.922Z" fill="#1D262D"/>
<path d="M173.824 177.955L166.985 181.926L151.62 173.06L158.459 169.089L173.824 177.955Z" fill="#37454F"/>
<path d="M86.1527 195.488L76.8104 200.878L12.0767 163.525L21.419 158.134L86.1527 195.488Z" fill="#D4E3E8"/>
<path d="M25.6247 155.707L90.3585 193.061L86.1527 195.488L21.4189 158.134L25.6247 155.707Z" fill="#CAD9DD"/>
<path d="M12.0767 165.852L76.8104 203.205V200.879L12.0767 163.526V165.852Z" fill="#DFEAED"/>
<path d="M90.3597 193.061L76.8105 200.879V203.205L90.3597 195.387V193.061Z" fill="#B6C9CE"/>
<path d="M62.8411 189.747L60.1839 191.28L59.3301 190.787L61.9873 189.254L62.8411 189.747Z" fill="#CAD9DD"/>
<path d="M59.8229 186.039L55.4549 188.558L54.6011 188.065L58.9691 185.547L59.8229 186.039Z" fill="#CAD9DD"/>
<path d="M53.3904 184.295L50.7332 185.828L49.8794 185.336L52.5366 183.802L53.3904 184.295Z" fill="#CAD9DD"/>
<path d="M69.2726 191.492L64.9046 194.011L64.0508 193.518L68.4188 191L69.2726 191.492Z" fill="#CAD9DD"/>
<path d="M78.7253 196.946L74.3573 199.464L73.5034 198.972L77.8714 196.453L78.7253 196.946Z" fill="#CAD9DD"/>
<path d="M72.2908 195.204L69.6336 196.737L68.7798 196.244L71.437 194.711L72.2908 195.204Z" fill="#CAD9DD"/>
<path d="M50.3727 180.586L46.0047 183.104L45.1509 182.612L49.5189 180.093L50.3727 180.586Z" fill="#CAD9DD"/>
<path d="M25.0394 167.94L22.3822 169.473L21.5283 168.981L24.1855 167.448L25.0394 167.94Z" fill="#CAD9DD"/>
<path d="M22.0212 164.226L17.6531 166.745L16.7993 166.252L21.1673 163.734L22.0212 164.226Z" fill="#CAD9DD"/>
<path d="M43.9402 178.844L41.283 180.377L40.4292 179.884L43.0864 178.351L43.9402 178.844Z" fill="#CAD9DD"/>
<path d="M31.4718 169.679L27.1039 172.198L26.25 171.705L30.618 169.187L31.4718 169.679Z" fill="#CAD9DD"/>
<path d="M40.922 175.133L36.5541 177.651L35.7002 177.159L40.0682 174.64L40.922 175.133Z" fill="#CAD9DD"/>
<path d="M34.4837 173.392L31.8265 174.925L30.9727 174.432L33.6298 172.899L34.4837 173.392Z" fill="#CAD9DD"/>
<path d="M149.219 228.451V231.422L111.762 252.891V249.912L149.219 228.451Z" fill="#282828"/>
<path d="M149.219 228.447L111.762 249.911L75.0039 228.697L112.462 207.228L149.219 228.447Z" fill="#424242"/>
<path d="M111.762 249.912V252.891L75.0039 231.668V228.698L111.762 249.912Z" fill="#303030"/>
<path d="M111.891 240.32C107.222 240.397 102.611 239.27 98.505 237.048C93.9768 234.436 91.4829 230.66 91.4829 226.415C91.4829 222.17 93.9789 218.394 98.505 215.782C102.639 213.633 107.23 212.51 111.89 212.51C116.55 212.51 121.142 213.633 125.276 215.782C129.803 218.394 132.296 222.171 132.296 226.416C132.296 230.661 129.8 234.436 125.275 237.049C121.169 239.271 116.559 240.398 111.891 240.32Z" fill="#D4E3E8"/>
<path d="M111.891 239.332C107.222 239.409 102.611 238.282 98.505 236.06C93.9768 233.448 91.4829 229.672 91.4829 225.427C91.4829 221.182 93.9789 217.405 98.505 214.793C102.639 212.644 107.23 211.521 111.89 211.521C116.55 211.521 121.142 212.644 125.276 214.793C129.803 217.405 132.296 221.182 132.296 225.427C132.296 229.672 129.8 233.448 125.275 236.06C121.169 238.282 116.559 239.409 111.891 239.332Z" fill="#C3D3DD"/>
<path d="M125.82 224.162L125.788 221.593C127.972 221.565 129.714 219.163 130.611 216.923C131.702 214.199 131.651 211.599 130.911 210.881C129.247 209.26 126.375 211.697 126.346 211.722L124.662 209.779C126.273 208.381 130.026 206.426 132.708 209.042C134.609 210.899 134.223 214.818 132.998 217.877C131.437 221.776 128.757 224.125 125.82 224.162Z" fill="#DFEAED"/>
<path d="M96.5269 210.556V225.426C96.5269 227.696 98.0265 229.964 101.027 231.695C107.027 235.157 116.755 235.157 122.755 231.695C125.754 229.965 127.255 227.696 127.255 225.426V210.556H96.5269Z" fill="#DCE8EF"/>
<path d="M122.755 216.825C116.755 220.288 107.027 220.288 101.027 216.825C95.0273 213.363 95.0263 207.75 101.027 204.288C107.028 200.826 116.754 200.826 122.755 204.288C128.756 207.75 128.755 213.363 122.755 216.825Z" fill="#F0F5F7"/>
<path d="M111.892 218.162C108.329 218.241 104.805 217.405 101.657 215.734C99.1614 214.295 97.7876 212.456 97.7876 210.557C97.7876 208.658 99.1614 206.82 101.657 205.381C104.832 203.784 108.337 202.952 111.891 202.952C115.444 202.952 118.949 203.784 122.124 205.381C124.62 206.82 125.993 208.659 125.993 210.557C125.993 212.455 124.619 214.299 122.124 215.735C118.977 217.406 115.454 218.242 111.892 218.162Z" fill="#C3D3DD"/>
<path d="M122.123 210.649C118.949 209.052 115.444 208.221 111.89 208.221C108.336 208.221 104.832 209.052 101.657 210.649C100.503 211.276 99.4965 212.142 98.7056 213.191C99.4964 214.239 100.503 215.105 101.657 215.732C104.832 217.329 108.336 218.16 111.89 218.16C115.444 218.16 118.949 217.329 122.123 215.732C123.278 215.105 124.284 214.238 125.076 213.19C124.284 212.142 123.278 211.276 122.123 210.649Z" fill="#424242"/>
<path d="M0 173.58L4.99199 179.305L7.45472 175.043L0 173.58Z" fill="#EFC87E"/>
<path d="M0 173.58L1.37176 175.151L2.04775 173.981L0 173.58Z" fill="#41AAFF"/>
<path d="M7.45987 175.04C7.25982 174.947 7.03859 174.91 6.81914 174.931C6.59968 174.953 6.39003 175.033 6.21189 175.163C5.70453 175.492 5.28246 175.937 4.98022 176.461C4.67798 176.985 4.50417 177.573 4.47301 178.177C4.45125 178.392 4.48685 178.608 4.57619 178.805C4.66553 179.001 4.8054 179.171 4.98155 179.296L41.4856 200.499C41.3092 200.375 41.1693 200.205 41.0799 200.008C40.9906 199.812 40.955 199.595 40.977 199.38C41.0081 198.776 41.182 198.188 41.4842 197.664C41.7864 197.14 42.2085 196.695 42.7159 196.366C42.894 196.236 43.1037 196.156 43.3231 196.134C43.5426 196.113 43.7639 196.15 43.9639 196.243L7.45987 175.04Z" fill="#41AAFF"/>
<path d="M42.7208 196.366C43.6849 195.81 44.4722 196.253 44.4753 197.365C44.443 197.969 44.2682 198.557 43.9651 199.081C43.6619 199.605 43.2392 200.05 42.7313 200.379C41.7672 200.935 40.983 200.489 40.981 199.382C41.0119 198.778 41.1857 198.189 41.4882 197.665C41.7906 197.141 42.213 196.695 42.7208 196.366Z" fill="#267267"/>
<path d="M17.6479 176.609L22.6399 182.334L25.1027 178.072L17.6479 176.609Z" fill="#EFC87E"/>
<path d="M17.6479 176.609L19.0197 178.18L19.6957 177.01L17.6479 176.609Z" fill="#41AAFF"/>
<path d="M25.1059 178.069C24.906 177.977 24.6848 177.939 24.4654 177.96C24.2459 177.982 24.0362 178.061 23.8579 178.191C23.3506 178.521 22.9286 178.966 22.6264 179.489C22.3242 180.013 22.1503 180.601 22.119 181.205C22.0972 181.42 22.1328 181.637 22.2221 181.834C22.3115 182.03 22.4514 182.2 22.6276 182.325L46.1836 196.024C46.0075 195.899 45.8676 195.73 45.7783 195.534C45.6889 195.337 45.6533 195.12 45.6751 194.906C45.7062 194.302 45.88 193.714 46.1823 193.19C46.4845 192.666 46.9066 192.221 47.4139 191.891C47.5921 191.762 47.8019 191.682 48.0213 191.66C48.2408 191.639 48.462 191.677 48.6619 191.77L25.1059 178.069Z" fill="#41AAFF"/>
<path d="M47.4167 191.887C48.3808 191.331 49.1681 191.775 49.1712 192.887C49.139 193.491 48.9643 194.079 48.6613 194.603C48.3584 195.127 47.9359 195.572 47.4281 195.901C46.4641 196.457 45.6809 196.011 45.6768 194.904C45.7076 194.3 45.8813 193.711 46.1837 193.187C46.4862 192.662 46.9087 192.217 47.4167 191.887Z" fill="#41AAFF"/>
<path d="M20.4767 197.262C20.2018 197.14 19.9646 196.946 19.7896 196.701C19.6147 196.457 19.5083 196.17 19.4815 195.87L19.4731 198.668C19.4999 198.968 19.6063 199.255 19.7813 199.499C19.9563 199.744 20.1935 199.938 20.4684 200.06L22.0825 200.995L22.0908 198.197L20.4767 197.262Z" fill="#C4C4C4"/>
<path d="M26.852 195.427L26.8436 198.225L22.0825 200.991L22.0908 198.193L26.852 195.427Z" fill="#ECECEC"/>
<path d="M26.8518 195.427L22.0907 198.193L20.4767 197.258C19.1548 196.495 19.1486 195.256 20.461 194.493C21.2008 194.116 22.0192 193.92 22.8494 193.92C23.6796 193.92 24.498 194.116 25.2377 194.493L26.8518 195.427Z" fill="#ECECEC"/>
<path d="M30.1708 197.344L30.1625 200.142L25.4014 202.907L25.4097 200.109L30.1708 197.344Z" fill="#6DC1B4"/>
<path d="M25.4159 200.109L25.4076 202.907L22.0879 200.991L22.0962 198.193L25.4159 200.109Z" fill="#41AAFF"/>
<path d="M30.1706 197.344L25.4095 200.109L22.0898 198.193L26.8509 195.427L30.1706 197.344Z" fill="#41AAFF"/>
<path d="M31.8014 201.044C31.0615 201.42 30.2431 201.616 29.413 201.616C28.583 201.616 27.7647 201.42 27.0247 201.044L25.4116 200.109L25.4033 202.907L27.0164 203.837C27.7563 204.213 28.5746 204.409 29.4047 204.409C30.2348 204.409 31.0532 204.213 31.7931 203.837C32.0636 203.716 32.297 203.525 32.4694 203.284C32.6419 203.043 32.7473 202.76 32.7749 202.465L32.7832 199.667C32.7565 199.963 32.6516 200.247 32.479 200.489C32.3065 200.731 32.0726 200.922 31.8014 201.044Z" fill="#C4C4C4"/>
<path d="M31.7848 198.275C33.1066 199.038 33.116 200.275 31.8004 201.04C31.0605 201.416 30.2421 201.612 29.412 201.612C28.5819 201.612 27.7636 201.416 27.0237 201.04L25.4106 200.105L30.1718 197.34L31.7848 198.275Z" fill="#ECECEC"/>
<path d="M215.103 208.672L261.98 181.624L232.722 164.742L185.846 191.79L215.103 208.672Z" fill="#41AAFF"/>
<path d="M261.98 183.729L215.103 210.777V208.672L261.98 181.624V183.729Z" fill="#41AAFF"/>
<path d="M215.103 210.776L185.846 193.894V191.789L215.103 208.671V210.776Z" fill="#41AAFF"/>
<path d="M215.103 198.578L261.98 171.529L232.723 154.646L185.846 181.695L215.103 198.578Z" fill="#41AAFF"/>
<path d="M188.548 183.254V195.525L185.844 193.966V181.695L188.548 183.254Z" fill="#41AAFF"/>
<path d="M215.103 200.682V207.231L260.674 180.908V174.359L215.103 200.682Z" fill="#DFEAED"/>
<path d="M215.103 200.682L185.846 183.8V181.696L215.103 198.578V200.682Z" fill="#41AAFF"/>
<path d="M261.98 173.633L215.103 200.681V198.577L261.98 171.528V173.633Z" fill="#41AAFF"/>
<path d="M215.103 200.681L188.548 185.35V191.898L215.103 207.23V200.681Z" fill="#B6C9CE"/>
<path d="M211.025 196.227L257.902 169.178L252.617 166.128L205.74 193.177L211.025 196.227Z" fill="#1C5047"/>
<path d="M215.103 196.51L261.98 169.462L232.722 152.58L185.845 179.628L215.103 196.51Z" fill="#41AAFF"/>
<path d="M261.98 171.566L215.103 198.615V196.51L261.98 169.462V171.566Z" fill="#41AAFF"/>
<path d="M215.103 198.614L185.846 181.732V179.627L215.103 196.509V198.614Z" fill="#267267"/>
<path d="M215.103 186.415L261.98 159.366L232.722 142.484L185.845 169.532L215.103 186.415Z" fill="#41AAFF"/>
<path d="M188.548 171.091V183.362L185.844 181.803V169.531L188.548 171.091Z" fill="#267267"/>
<path d="M215.103 188.52V195.069L260.674 168.746V162.197L215.103 188.52Z" fill="#DFEAED"/>
<path d="M215.103 188.52L185.846 171.638V169.531L215.103 186.414V188.52Z" fill="#267267"/>
<path d="M261.98 161.471L215.103 188.519V186.415L261.98 159.366V161.471Z" fill="#41AAFF"/>
<path d="M215.103 188.519L188.548 173.188V179.736L215.103 195.068V188.519Z" fill="#B6C9CE"/>
<path d="M211.025 184.064L257.902 157.016L252.625 153.962L205.749 181.011L211.025 184.064Z" fill="#D4E3E8"/>
<path d="M183.086 222.827L187.116 204.68H153.743L157.773 222.827H183.086Z" fill="#DCE8EF"/>
<path d="M170.43 213.147C179.722 213.147 187.254 208.801 187.254 203.439C187.254 198.077 179.722 193.731 170.43 193.731C161.138 193.731 153.606 198.077 153.606 203.439C153.606 208.801 161.138 213.147 170.43 213.147Z" fill="#F0F5F7"/>
<path d="M170.43 211.469C166.581 211.556 162.774 210.655 159.373 208.851C156.736 207.329 155.285 205.409 155.285 203.44C155.285 201.471 156.741 199.549 159.373 198.028C162.804 196.306 166.591 195.41 170.43 195.41C174.27 195.41 178.056 196.306 181.487 198.028C184.124 199.549 185.576 201.471 185.576 203.44C185.576 205.409 184.12 207.33 181.487 208.851C178.086 210.655 174.279 211.556 170.43 211.469Z" fill="#C3D3DD"/>
<path d="M181.486 202.444C178.055 200.723 174.269 199.826 170.429 199.826C166.589 199.826 162.803 200.723 159.372 202.444C157.954 203.189 156.758 204.294 155.903 205.648C156.758 207.001 157.954 208.106 159.372 208.85C162.803 210.572 166.589 211.469 170.429 211.469C174.269 211.469 178.055 210.572 181.486 208.85C182.904 208.106 184.1 207.001 184.955 205.648C184.1 204.294 182.904 203.189 181.486 202.444Z" fill="#424242"/>
<path d="M179.452 227.092C174.469 229.968 166.39 229.968 161.406 227.092C156.423 224.216 156.423 219.554 161.406 216.679C166.39 213.804 174.469 213.803 179.452 216.679C184.436 219.555 184.436 224.217 179.452 227.092Z" fill="#DCE8EF"/>
<path d="M169.322 194.129V205.444C169.331 205.542 169.366 205.635 169.423 205.714C169.48 205.794 169.557 205.856 169.647 205.896C169.889 206.019 170.157 206.083 170.429 206.083C170.701 206.083 170.969 206.019 171.212 205.896C171.301 205.857 171.379 205.794 171.436 205.714C171.493 205.635 171.527 205.542 171.536 205.444V194.129H169.322Z" fill="#282828"/>
<path d="M185.233 186.664C185.233 190.588 183.674 194.351 180.897 197.126C178.121 199.9 174.356 201.459 170.43 201.459C166.504 201.459 162.738 199.9 159.962 197.126C157.186 194.351 155.626 190.588 155.626 186.664C155.626 178.493 170.43 157.955 170.43 157.955C170.43 157.955 185.233 178.499 185.233 186.664Z" fill="#41AAFF"/>
<g style="mix-blend-mode:multiply">
<g style="mix-blend-mode:multiply">
<path d="M177.746 169.108C178.925 175.07 178.164 181.253 175.574 186.751C172.984 192.25 168.702 196.776 163.354 199.667C165.609 200.893 168.143 201.511 170.709 201.463C173.275 201.414 175.784 200.7 177.991 199.389C180.197 198.079 182.025 196.218 183.295 193.989C184.564 191.76 185.232 189.239 185.234 186.674C185.234 182.552 181.475 175.296 177.746 169.108Z" fill="#D1D3D4"/>
</g>
</g>
<path d="M54.6344 220.264C54.6344 220.264 59.5224 218.868 60.5676 219.392C61.6128 219.916 60.812 221.941 58.5417 223.232C57.0712 224.21 55.4945 225.018 53.8419 225.641C52.6386 225.953 50.7531 225.99 50.4744 224.803C50.2093 223.763 50.2699 222.666 50.6481 221.661C50.9621 221.137 54.6344 220.264 54.6344 220.264Z" fill="#424242"/>
<path d="M55.0713 219.944V221.025C54.9251 221.483 54.6321 221.881 54.2375 222.157C53.8428 222.433 53.3684 222.572 52.8873 222.552C50.8842 222.54 50.8374 221.494 50.8374 221.494L50.8967 219.99" fill="#F4B298"/>
<path d="M61.5924 224.51C61.5924 224.51 67.0722 222.944 68.2484 223.531C69.4247 224.118 68.523 226.389 65.976 227.837C63.4291 229.285 62.0532 230.186 60.7043 230.54C59.3554 230.893 57.24 230.931 56.926 229.604C56.6296 228.437 56.6978 227.208 57.1215 226.081C57.473 225.488 61.5924 224.51 61.5924 224.51Z" fill="#424242"/>
<path d="M61.5891 223.883V225.841C61.5891 225.841 61.3489 227.132 59.4301 227.25C57.5113 227.367 57.1182 226.075 57.1182 226.075V224.558L60.0177 224.118L61.5891 223.883Z" fill="#F4B298"/>
<path d="M50.4943 184.452C49.9743 186.954 51.4449 189.846 51.524 190.942C51.603 192.039 50.7959 200.187 50.3259 205.977C49.8558 211.768 50.2624 221.049 50.2624 221.049C50.5825 221.434 51.0063 221.72 51.4838 221.873C51.9612 222.026 52.4725 222.039 52.9571 221.91C54.0136 221.731 55.012 221.301 55.8691 220.658C55.8691 220.658 57.1618 201.117 57.5539 198.85C57.946 196.583 58.623 187.496 58.676 186.086C58.7291 184.677 51.5624 179.32 50.4943 184.452Z" fill="#282828"/>
<path d="M65.7981 186.895C65.8078 193.098 65.3559 199.293 64.4461 205.429C64.2891 206.446 62.753 224.926 62.753 224.926C62.753 224.926 61.1556 228.528 56.1407 225.827C56.1407 225.827 56.6607 208.902 56.7532 206.029C56.8458 203.156 57.3107 197.206 57.1172 194.231C56.9238 191.256 55.2452 190.473 55.0674 186.557C55.0674 186.557 55.7216 182.955 60.4359 183.268C65.1502 183.582 65.7981 186.895 65.7981 186.895Z" fill="#303030"/>
<path d="M67.5868 164.108C68.1474 160.707 66.3045 158.831 62.1788 156.416C60.4743 155.417 54.1282 151.073 51.0134 154.948C47.8986 158.823 51.1902 167.515 51.0134 172.449C50.8366 177.383 50.0774 183.842 50.0774 183.842C50.0774 183.842 51.6644 187.073 57.4229 187.601C60.5967 187.978 63.8149 187.616 66.8255 186.544C66.8255 186.544 65.9405 174.091 67.5868 164.108Z" fill="#41AAFF"/>
<path d="M66.6831 173.676C65.0628 175.213 62.9504 176.129 60.7197 176.26V178.569C62.7265 178.331 64.6983 177.858 66.5947 177.16C66.8229 176.487 66.9644 175.789 67.0159 175.081C67.1136 173.875 66.6831 173.676 66.6831 173.676Z" fill="#41AAFF"/>
<path d="M59.693 160.672C59.8617 161.072 59.9815 161.49 60.0498 161.919C57.6994 159.87 56.4014 168.599 55.1046 168.901C53.8077 169.202 48.824 167.426 47.5458 164.775C47.2357 163.487 47.1993 162.149 47.439 160.846C47.6787 159.543 48.1891 158.305 48.9374 157.211C49.811 155.654 58.574 158.323 59.693 160.672Z" fill="#282828"/>
<path d="M60.7081 177.117C60.7455 179.88 60.8682 183.939 57.8117 183.996C54.7551 184.053 48.2874 181.12 47.939 179.824C47.4095 174.828 47.2777 169.797 47.5448 164.78C48.823 167.43 53.816 169.197 55.1035 168.906C56.391 168.615 57.7035 159.875 60.0487 161.924C60.7736 165.691 60.6706 174.703 60.7081 177.117Z" fill="#2F3030"/>
<path d="M60.1423 162.461C60.1423 162.461 61.2966 159.267 62.9502 158.974C63.9853 158.806 65.0457 158.885 66.0443 159.205C66.0443 159.205 66.2169 158.709 65.5107 158.152C64.7557 157.669 63.9483 157.272 63.1042 156.97C63.1042 156.97 60.6082 156.393 58.0342 159.137C58.6407 159.39 59.1561 159.821 59.512 160.373C59.7836 161.049 59.9945 161.748 60.1423 162.461Z" fill="#41AAFF"/>
<path d="M53.4105 157.241C53.4105 157.241 53.7838 154.041 55.1067 153.366C54.8574 153.194 54.5619 153.102 54.2591 153.101C53.6318 153.241 53.0282 153.471 52.4672 153.785C51.5403 154.532 50.9129 155.588 50.6992 156.759C50.6992 156.759 52.8739 157.088 53.4105 157.241Z" fill="#41AAFF"/>
<path d="M55.7919 152.768C55.7919 152.768 55.7524 154.217 55.7919 154.535C56.6035 155.396 57.7059 155.926 58.8859 156.022C59.666 156.141 60.4631 156.078 61.2144 155.836V153.861C61.2144 153.861 63.5087 153.96 63.8217 153.362C64.3115 152.018 64.5379 150.593 64.4884 149.163C64.2614 148.679 64.1029 148.165 64.0172 147.636C64.1131 146.988 64.1656 146.334 64.1743 145.679C63.99 145.086 63.7541 144.509 63.4691 143.957C63.4691 143.957 64.5091 142.665 61.6398 141.803C58.7704 140.942 54.9682 141.882 54.4981 142.739C54.2278 143.189 54.0804 143.701 54.0707 144.226C54.0707 144.226 52.5211 145.557 52.9028 146.888C53.5892 148.607 54.384 150.281 55.2823 151.9L55.7919 152.768Z" fill="#FFC8AF"/>
<path d="M61.6408 141.804C58.7693 140.943 54.9692 141.883 54.4991 142.74C54.2288 143.19 54.0814 143.702 54.0717 144.227C54.0717 144.227 52.5221 145.558 52.9037 146.889C53.5902 148.608 54.385 150.282 55.2833 151.901L55.7929 152.763C55.7929 152.763 58.9659 152.253 59.3185 151.827C59.671 151.401 60.3377 149.596 60.7204 149.748C61.1031 149.901 61.1593 151.197 61.1593 151.197H61.6366C61.6709 150.571 61.6709 149.944 61.6366 149.318C61.5711 148.966 62.2128 148.339 62.2908 147.831C62.2646 147.081 62.1808 146.335 62.0401 145.599C62.0245 145.287 63.466 143.955 63.466 143.955C63.466 143.955 64.5133 142.667 61.6408 141.804Z" fill="#282828"/>
<path d="M73.9266 187.707C73.8132 187.33 72.6193 183.976 72.6193 183.976L68.7547 174.26C68.5326 173.664 68.1943 173.118 67.7594 172.654C67.778 169.243 67.5346 165.836 67.0314 162.462C67.0314 162.462 63.5204 160.041 62.394 164.201C62.394 164.201 62.7913 170.675 62.914 173.415V173.424L62.9307 173.723C62.9442 174.063 62.9525 174.328 62.9525 174.479C62.9528 174.563 62.9647 174.647 62.9879 174.729V174.74L63.0066 174.778C63.0285 174.842 63.0578 174.903 63.094 174.959L63.1096 174.993V175.002C64.4917 177.793 69.6532 185.414 69.7188 185.77C69.7188 185.77 69.465 187.067 69.8976 187.537C70.3303 188.007 70.8004 188.083 70.8752 188.439C70.9501 188.796 70.9127 190.16 70.9979 190.518C71.0832 190.877 72.558 192.276 73.1133 191.881C73.1133 191.881 73.5834 190.593 73.6967 190.237C73.8956 189.409 73.9731 188.557 73.9266 187.707Z" fill="#FFC8AF"/>
<path d="M68.0109 168.037C68.0546 165.732 67.9019 163.428 67.5543 161.149C67.0229 159.357 63.255 158.016 62.0517 162.131C61.508 164.714 61.5062 167.382 62.0465 169.966C62.0767 169.973 66.7566 170.94 68.0109 168.037Z" fill="#41AAFF"/>
<path d="M153.943 60.748C168.048 68.8876 179.451 88.626 179.405 104.825C179.359 121.024 167.882 127.547 153.776 119.408C139.671 111.27 128.268 91.5447 128.315 75.3444C128.362 59.1442 139.837 52.6084 153.943 60.748Z" fill="#41AAFF"/>
<path d="M177.384 118.037L171.96 121.189C176.542 118.527 179.383 112.873 179.406 104.825C179.452 88.6249 168.049 68.8875 153.944 60.7469L159.37 57.5964C173.475 65.735 184.878 85.4734 184.832 101.674C184.808 109.718 181.967 115.375 177.384 118.037Z" fill="#41AAFF"/>
<path d="M144.374 78.5812L149.8 75.4297L167.313 97.196L161.888 100.347L144.374 78.5812Z" fill="#C3D3DD"/>
<path d="M144.373 78.5823L161.887 100.349L144.311 101.852L144.373 78.5823Z" fill="#A5B7C6"/>
<path d="M135.768 58.9705L141.193 55.8191C145.838 53.1166 152.271 53.5001 159.369 57.5964L153.944 60.7469C146.846 56.6516 140.412 56.2722 135.768 58.9705Z" fill="#41AAFF"/>
<path d="M244.406 139.878L244.342 162.71C244.333 166.005 242.165 169.295 237.837 171.809C229.123 176.871 214.948 176.871 206.176 171.809C201.763 169.262 199.56 165.919 199.569 162.582L199.634 139.75C199.625 143.088 201.829 146.431 206.243 148.977C215.015 154.039 229.188 154.039 237.903 148.977C242.231 146.463 244.397 143.173 244.406 139.878Z" fill="#455B68"/>
<path d="M237.797 130.649C246.569 135.711 246.615 143.916 237.901 148.977C229.187 154.038 215.013 154.039 206.241 148.977C197.468 143.915 197.423 135.711 206.137 130.649C214.85 125.587 229.026 125.589 237.797 130.649Z" fill="#424E57"/>
<path d="M237.902 148.978C233.054 151.572 227.621 152.879 222.124 152.774V175.605C227.6 175.7 233.009 174.394 237.838 171.81C242.166 169.296 244.334 166.006 244.343 162.711L244.408 139.879C244.398 143.174 242.232 146.465 237.902 148.978Z" fill="#1D262D"/>
<path d="M264.267 141.804L222.125 166.278L179.714 141.804L221.853 117.33L264.267 141.804Z" fill="#37454F"/>
<path d="M264.267 141.804L264.262 143.675L222.124 168.149L222.129 166.278L264.267 141.804Z" fill="#455B68"/>
<path d="M222.129 166.278L222.123 168.149L179.709 143.675L179.714 141.804L222.129 166.278Z" fill="#1D262D"/>
<path d="M244.375 172.724C244.494 172.763 244.597 172.839 244.671 172.94C244.745 173.041 244.785 173.163 244.786 173.288C244.786 173.413 244.748 173.536 244.676 173.638C244.604 173.74 244.502 173.817 244.384 173.859C244.08 174.013 243.743 174.094 243.402 174.094C243.061 174.094 242.725 174.013 242.421 173.859C242.303 173.818 242.2 173.742 242.127 173.64C242.054 173.538 242.015 173.416 242.015 173.291C242.015 173.166 242.054 173.044 242.127 172.942C242.2 172.841 242.303 172.764 242.421 172.724C242.724 172.57 243.059 172.49 243.398 172.49C243.738 172.49 244.072 172.57 244.375 172.724Z" fill="#EFC87E"/>
<path d="M245.762 178.201C245.76 178.103 245.74 178.006 245.704 177.914L244.779 173.341L242.013 173.409L241.096 177.9C241.058 177.994 241.037 178.094 241.036 178.196C241.056 178.404 241.131 178.604 241.253 178.774C241.376 178.944 241.541 179.078 241.732 179.164C242.251 179.427 242.824 179.564 243.406 179.564C243.987 179.564 244.561 179.427 245.079 179.164C245.27 179.078 245.433 178.943 245.554 178.773C245.675 178.603 245.747 178.404 245.765 178.196L245.762 178.201Z" fill="#41AAFF"/>
<path d="M244.784 171.167L244.777 173.35C244.766 173.471 244.723 173.587 244.653 173.686C244.582 173.784 244.487 173.863 244.376 173.913C244.072 174.067 243.736 174.148 243.395 174.148C243.054 174.148 242.718 174.067 242.415 173.913C242.302 173.863 242.204 173.783 242.132 173.683C242.061 173.583 242.017 173.465 242.006 173.342L242.012 171.159C242.023 171.282 242.066 171.4 242.138 171.5C242.21 171.6 242.307 171.68 242.42 171.73C242.724 171.885 243.06 171.965 243.401 171.965C243.742 171.965 244.078 171.885 244.382 171.73C244.493 171.68 244.589 171.602 244.659 171.503C244.73 171.404 244.773 171.288 244.784 171.167Z" fill="#41AAFF"/>
<path d="M244.375 170.595C244.493 170.635 244.596 170.71 244.669 170.811C244.743 170.912 244.783 171.034 244.784 171.159C244.784 171.284 244.746 171.406 244.675 171.508C244.603 171.61 244.501 171.687 244.383 171.729C244.079 171.883 243.743 171.964 243.402 171.964C243.061 171.964 242.724 171.883 242.421 171.729C242.303 171.688 242.2 171.612 242.128 171.51C242.055 171.408 242.016 171.287 242.016 171.162C242.016 171.037 242.055 170.915 242.128 170.814C242.2 170.712 242.303 170.635 242.421 170.595C242.723 170.441 243.058 170.361 243.398 170.361C243.737 170.361 244.072 170.441 244.375 170.595Z" fill="#41AAFF"/>
<path d="M243.344 171.642C243.113 171.635 242.886 171.574 242.682 171.465C242.6 171.428 242.529 171.372 242.474 171.3C242.42 171.229 242.384 171.145 242.37 171.056V170.983L242.304 152.292L243.275 152.857L243.344 171.642Z" fill="#41AAFF"/>
<path d="M243.277 151.269L244.249 151.834C244.184 151.803 244.112 151.791 244.04 151.798C243.969 151.805 243.901 151.831 243.843 151.873L242.871 151.309C242.929 151.266 242.997 151.241 243.069 151.234C243.14 151.227 243.212 151.239 243.277 151.269Z" fill="#41AAFF"/>
<path d="M244.486 171.013V171.064C244.472 171.151 244.437 171.233 244.383 171.303C244.33 171.373 244.26 171.429 244.18 171.466C243.924 171.601 243.636 171.662 243.348 171.643L243.281 152.858C243.291 152.661 243.348 152.469 243.447 152.298C243.545 152.127 243.683 151.982 243.848 151.874C243.927 151.826 244.016 151.8 244.108 151.796C244.128 151.796 244.148 151.799 244.167 151.803H244.174C244.189 151.807 244.205 151.813 244.219 151.819C244.224 151.818 244.228 151.818 244.233 151.819L244.246 151.826C244.306 151.866 244.354 151.922 244.385 151.987C244.416 152.052 244.428 152.124 244.421 152.195L244.486 171.013Z" fill="#41AAFF"/>
<path d="M243.276 152.857L242.305 152.293C242.316 152.096 242.373 151.904 242.472 151.733C242.57 151.562 242.708 151.417 242.874 151.309L243.846 151.873C243.68 151.981 243.542 152.126 243.443 152.297C243.344 152.468 243.287 152.66 243.276 152.857Z" fill="#41AAFF"/>
<path d="M221.726 139.839V140.962C221.733 141.032 221.758 141.1 221.798 141.157C221.839 141.214 221.895 141.26 221.959 141.289V140.166C221.895 140.137 221.839 140.091 221.798 140.034C221.757 139.976 221.732 139.909 221.726 139.839Z" fill="#41AAFF"/>
<path d="M221.959 140.167V141.29L243.028 153.527V152.404L221.959 140.167Z" fill="#41AAFF"/>
<path d="M244.408 153.199V152.077C244.401 152.148 244.376 152.216 244.334 152.275C244.292 152.333 244.236 152.379 244.17 152.408C243.994 152.498 243.8 152.545 243.602 152.545C243.404 152.545 243.21 152.498 243.034 152.408V153.531C243.21 153.621 243.405 153.668 243.603 153.668C243.8 153.668 243.995 153.621 244.171 153.531C244.237 153.502 244.293 153.455 244.335 153.397C244.376 153.339 244.401 153.27 244.408 153.199Z" fill="#41AAFF"/>
<path d="M221.963 139.512C221.895 139.536 221.836 139.58 221.794 139.639C221.752 139.698 221.729 139.769 221.729 139.841C221.729 139.914 221.752 139.984 221.794 140.043C221.836 140.102 221.895 140.147 221.963 140.17L243.033 152.407C243.209 152.497 243.403 152.544 243.601 152.544C243.799 152.544 243.993 152.497 244.169 152.407C244.238 152.384 244.297 152.339 244.339 152.28C244.381 152.221 244.404 152.151 244.404 152.078C244.404 152.006 244.381 151.935 244.339 151.876C244.297 151.817 244.238 151.773 244.169 151.749L223.101 139.512C222.925 139.423 222.73 139.376 222.532 139.376C222.334 139.376 222.139 139.423 221.963 139.512Z" fill="#41AAFF"/>
<path d="M243.279 153.628V152.507L243.028 152.408L242.918 152.664L242.986 153.438L243.032 153.531L243.279 153.628Z" fill="#41AAFF"/>
<g style="mix-blend-mode:screen">
<g style="mix-blend-mode:screen">
<g style="mix-blend-mode:screen">
<path d="M188.4 105.061H196.121V113.971L188.4 105.061Z" fill="#41AAFF"/>
</g>
</g>
<g style="mix-blend-mode:screen">
<g style="mix-blend-mode:screen">
<path d="M196.88 109.955H204.601V118.864L196.88 109.955Z" fill="#41AAFF"/>
</g>
</g>
</g>
<g style="mix-blend-mode:screen">
<g style="mix-blend-mode:screen">
<path d="M196.501 86.9014C195.47 86.3069 194.634 86.7892 194.634 87.9783C194.669 88.6256 194.856 89.2555 195.181 89.817C195.505 90.3784 195.957 90.8556 196.501 91.2098C197.532 91.8043 198.373 91.321 198.373 90.133C198.337 89.4851 198.149 88.8549 197.823 88.2933C197.498 87.7318 197.045 87.255 196.501 86.9014ZM192.139 81.2793L193.781 84.2084C194.223 84.0221 194.705 83.9524 195.181 84.0059C195.657 84.0594 196.112 84.2344 196.501 84.5139C197.629 85.2167 198.564 86.1904 199.22 87.3463L200.863 86.3131C199.81 84.4591 198.311 82.8971 196.501 81.7689C195.876 81.3212 195.147 81.041 194.384 80.9551C193.62 80.8692 192.847 80.9805 192.139 81.2783V81.2793ZM196.501 70.2356C192.125 67.7108 188.157 67.4125 185.228 68.9581L186.872 71.8882C189.377 70.5682 192.76 70.8218 196.501 72.9796C200.496 75.4659 203.806 78.9106 206.13 83.0006L207.774 81.9663C205.052 77.1796 201.177 73.1481 196.501 70.2376V70.2356ZM188.729 75.1988L190.372 78.1278C191.968 77.2869 194.116 77.4418 196.501 78.8169C199.044 80.4011 201.151 82.5956 202.63 85.201L204.273 84.1678C202.397 80.8644 199.725 78.0816 196.501 76.0719C193.483 74.3308 190.748 74.1334 188.728 75.1988H188.729Z" fill="#41AAFF"/>
</g>
</g>
<g style="mix-blend-mode:screen">
<g style="mix-blend-mode:screen">
<g style="mix-blend-mode:screen">
<path d="M116.056 64.3984C114.711 65.5646 114.732 68.4136 116.101 71.1223C117.661 74.2 120.324 76.0896 122.237 75.7196L125.195 80.8366C125.32 81.0518 125.523 81.1692 125.647 81.0965L126.479 80.6173C126.602 80.5445 126.602 80.3117 126.479 80.0976L123.523 74.9816C124.72 73.6013 124.529 70.6587 122.946 67.9188C121.02 64.5854 117.805 62.8829 116.056 64.3984ZM121.663 73.2427C120.567 73.8747 118.786 72.8456 117.691 70.9497C116.595 69.0539 116.595 67 117.691 66.3659C118.786 65.7319 120.567 66.762 121.663 68.6578C122.76 70.5537 122.757 72.6107 121.659 73.2427H121.663Z" fill="#41AAFF"/>
</g>
</g>
</g>
<path d="M23.4124 78.8764C22.5554 76.7259 21.064 75.5856 19.7432 76.3922C18.4224 77.1988 20.4712 83.0299 21.1316 85.0432C21.792 87.0566 22.0084 88.2404 22.6043 88.7071C23.2002 89.1738 28.7403 95.7429 28.7403 95.7429C28.5465 96.5405 28.507 97.3678 28.6238 98.1803C28.8786 98.9848 29.2229 99.9473 29.4943 99.8434C29.7657 99.7394 29.6565 98.4007 29.8832 98.3591C30.11 98.3175 30.3408 99.5575 30.2909 99.9182C30.241 100.279 29.436 101.595 29.6534 101.881C29.8708 102.166 30.8577 101.387 31.3424 100.795C31.7718 100.275 32.0051 99.6201 32.0017 98.9453C31.9528 98.4994 31.7937 97.5255 31.7937 97.5255L30.5717 95.2325L26.1975 87.3777L23.4124 78.8764Z" fill="#FFC8AF"/>
<path d="M24.3422 81.7151C24.3422 81.7151 25.7795 86.0338 26.3068 86.9859C26.8341 87.938 27.4633 88.9608 27.4633 88.9608C27.1497 89.7039 26.602 90.3243 25.9033 90.7278L24.8435 91.2402C24.0916 90.699 23.4222 90.0516 22.8561 89.3184C22.6086 88.7165 23.2575 84.4331 23.2575 84.4331L24.3422 81.7151Z" fill="#41AAFF"/>
<path d="M27.4631 88.9587C27.6489 89.0303 27.8064 89.1602 27.912 89.3289C28.0176 89.4975 28.0655 89.6959 28.0486 89.8942C27.8317 90.3999 27.5065 90.8519 27.096 91.2184C26.6048 91.6816 26.0117 92.023 25.3644 92.2152C25.0045 91.8667 24.7252 91.4438 24.5459 90.9762C25.2394 90.6539 25.901 90.2669 26.5219 89.8204C27.0221 89.3651 27.4631 88.9587 27.4631 88.9587Z" fill="#41AAFF"/>
<path d="M26.8892 139.178C27.0286 140.336 23.5435 140.049 22.6023 139.466C21.778 138.769 21.0012 138.019 20.2769 137.219C19.6238 136.706 19.0486 136.706 18.9696 136.201C18.9529 136.052 18.9093 135.634 18.8739 135.057C18.73 133.265 18.689 131.465 18.7512 129.668C18.8989 127.343 18.5598 121.977 18.9685 119.22C19.0299 118.828 19.0725 118.419 19.1172 117.992C19.318 115.876 19.3253 113.429 19.3877 111.985C19.4657 110.244 19.0476 103.33 19.0476 103.33C19.0476 103.33 18.6118 95.3458 18.6118 93.4645C18.6118 92.8294 19.1256 92.4802 19.8141 92.3066C20.9262 92.0973 22.0651 92.0709 23.1857 92.2286C25.5777 103.548 24.6137 109.93 24.5617 113.491C24.518 116.686 23.6205 118.715 23.2554 122.268C22.8904 125.82 22.1665 130.826 22.3142 132.646C22.4099 133.864 24.388 135.885 25.7119 137.417C26.2234 137.915 26.6245 138.515 26.8892 139.178Z" fill="#F4B298"/>
<path d="M21.8798 101.085C21.1518 103.331 18.9678 103.55 19.2663 107.18C19.5648 110.811 19.7717 115.086 19.1883 117.698C19.1623 117.794 19.1446 117.899 19.1186 117.994V118.003C18.2954 121.187 17.7361 124.434 17.4463 127.711C17.0902 131.423 16.9943 135.156 17.1593 138.882C17.2289 139.457 17.5337 140.659 17.7781 141.86C18.0734 143.245 18.298 144.629 18.0308 145.055C17.5253 145.847 14.476 145.055 14.0403 144.328C13.6045 143.6 13.7449 142.012 13.7449 141.141C13.7449 140.984 13.7189 140.413 13.6659 139.556C13.4402 135.673 12.8339 125.982 12.9524 123.727C13.0918 120.966 13.8885 116.613 13.6805 113.496C13.4725 110.379 12.3742 107.906 12.7393 102.465C13.1043 97.0233 15.1313 96.5878 15.2748 93.7575C15.3705 91.9905 17.9143 92.0342 19.8227 92.3127H19.831C20.5235 92.4186 21.2098 92.5613 21.8871 92.7399C21.8871 92.7399 22.6026 98.8298 21.8798 101.085Z" fill="#FFC8AF"/>
<path d="M23.8003 92.0674C23.8003 92.0674 22.0396 94.6794 15.2723 93.7543C15.2723 93.7543 12.3135 97.1844 12.1523 101.047C11.9911 104.909 12.4789 110.951 12.4789 110.951C14.6998 111.721 17.0446 112.072 19.3938 111.986C23.9137 111.986 25.2178 110.571 25.2178 110.571C25.2178 110.571 24.9453 99.3609 24.6729 96.4766C24.5695 94.9759 24.2763 93.4944 23.8003 92.0674Z" fill="#282828"/>
<path d="M9.99739 83.3332C10.4872 80.1495 11.7394 79.2515 14.5734 77.075C17.4074 74.8984 20.5898 73.7821 22.2236 76.3131C23.4528 78.2999 24.2764 80.5102 24.6468 82.8167C24.6468 83.4154 23.6672 84.803 23.6942 85.5919C23.7212 86.3808 23.7982 92.0674 23.7982 92.0674C23.7982 92.0674 22.9548 94.2439 19.1182 94.4892C15.2816 94.7345 14.9249 94.1629 14.9249 94.1629C14.9249 94.1629 14.4351 91.1704 14.0815 89.4013C13.7279 87.6323 9.66459 85.4921 9.99739 83.3332Z" fill="#FFC8AF"/>
<path d="M14.9252 94.163C14.9252 94.163 15.2788 94.7347 19.1185 94.4894C22.9582 94.2441 23.7985 92.0675 23.7985 92.0675C23.7985 92.0675 23.7174 86.3809 23.6945 85.592C23.6716 84.8031 24.6471 83.4155 24.6471 82.8168C24.2767 80.5104 23.4531 78.3 22.2239 76.3132C21.9847 75.9113 21.6531 75.572 21.2567 75.3235C20.8603 75.075 20.4104 74.9244 19.9442 74.884C20.0773 75.0431 21.5874 76.8589 21.5531 77.9732C21.5167 79.1342 18.1409 81.4188 16.7972 81.4188C15.4712 81.4188 14.7089 79.1581 12.8379 78.4378C12.0427 79.004 11.378 79.7339 10.8886 80.5783C10.3992 81.4228 10.0965 82.3622 10.0008 83.3334C9.66801 85.4922 13.7313 87.6324 14.0849 89.4004C14.4385 91.1684 14.9252 94.163 14.9252 94.163Z" fill="#DCE8EF"/>
<path d="M19.9909 74.6262C19.9909 74.6262 19.9639 76.9388 19.8869 77.6196C19.8099 78.3005 17.9265 78.2994 17.1101 78.2994C16.93 78.3128 16.749 78.2891 16.5785 78.2296C16.4079 78.1702 16.2514 78.0763 16.1187 77.9539C15.9859 77.8315 15.8798 77.6831 15.8069 77.5179C15.7339 77.3528 15.6957 77.1744 15.6947 76.9939C15.6666 76.205 15.7123 72.5681 15.7123 72.5681C16.6324 72.7683 17.5229 73.0855 18.3623 73.5119C19.9347 74.2728 19.9909 74.6262 19.9909 74.6262Z" fill="#F4B298"/>
<path d="M18.322 77.2517C18.322 77.2517 18.7577 78.4491 19.05 79.2109C19.3422 79.9728 20.429 91.7992 19.9943 95.7895C19.5596 99.7798 18.6142 101.231 17.8166 101.449C17.0189 101.667 12.1538 99.2726 12.1538 99.2726C12.1538 99.2726 14.1859 94.193 14.0403 92.3085C13.8947 90.4241 11.5724 86.94 10.7737 84.1824C9.97496 81.4249 10.3015 81.1681 10.7019 80.373C11.5539 79.2421 12.5009 78.1861 13.5328 77.2163L16.7277 77.6518L18.322 77.2517Z" fill="#41AAFF"/>
<path d="M18.323 77.2474C18.0309 77.9108 17.8119 78.6041 17.6699 79.3148C17.6699 79.8231 13.5317 77.2111 13.5317 77.2111L13.7501 76.0864L18.323 77.2474Z" fill="#4EC4AE"/>
<path d="M21.8763 66.9086C21.9861 67.6658 22.0101 68.4328 21.9481 69.1953C22.1028 69.6156 22.2004 70.0546 22.2382 70.5008C22.2382 71.0819 22.2746 74.1647 21.6579 74.5649C21.0412 74.9651 17.6279 74.4194 16.9384 73.8747C16.4751 73.4915 16.0606 73.0531 15.7039 72.5693C15.4699 72.5827 15.2361 72.5405 15.0217 72.446C14.8072 72.3514 14.6183 72.2074 14.4705 72.0256C13.9289 71.1788 13.5714 70.2276 13.4212 69.2339C13.2711 68.2401 13.3316 67.2258 13.5989 66.2569C14.3976 63.5721 18.7168 63.463 20.2424 64.5512C20.6622 64.811 21.0238 65.1544 21.3049 65.5599C21.586 65.9655 21.7805 66.4246 21.8763 66.9086Z" fill="#FFC8AF"/>
<path d="M26.8903 139.178C27.0296 140.335 23.5446 140.049 22.6034 139.466C21.7792 138.769 21.0023 138.019 20.278 137.219C19.6249 136.706 19.0497 136.706 18.9707 136.201C18.9541 136.052 18.9104 135.634 18.875 135.057C20.1552 136.006 23.2825 138.209 24.4588 138.053C25.1868 137.949 25.5653 137.713 25.713 137.417C26.2245 137.915 26.6256 138.515 26.8903 139.178Z" fill="#41AAFF"/>
<path d="M18.0294 145.054C17.524 145.846 14.4747 145.054 14.0389 144.327C13.6032 143.599 13.7436 142.011 13.7436 141.14C13.7436 140.983 13.7176 140.412 13.6646 139.555C13.7519 139.904 13.8299 140.283 13.8913 140.661C14.144 142.298 14.2927 142.948 16.3571 143.203C17.264 143.317 17.6384 142.646 17.7777 141.862C18.0731 143.244 18.2998 144.628 18.0294 145.054Z" fill="#41AAFF"/>
<path d="M9.68061 85.518C9.97077 82.7968 10.1892 80.8022 11.6046 80.5476C13.0201 80.2929 13.8926 82.0713 13.5286 85.0461C13.1646 88.0209 12.5489 91.9062 12.5489 91.9062C12.5489 91.9062 13.3809 101.702 13.4933 102.064C13.6056 102.427 14.292 102.681 14.6185 103.153C14.9451 103.625 15.4172 105.543 15.0907 105.728C14.7641 105.913 14.4001 104.749 14.1464 104.897C13.8926 105.044 14.11 106.202 14.292 106.711C14.474 107.219 14.9451 107.762 14.6549 107.944C14.1821 107.939 13.7169 107.825 13.2952 107.611C12.8736 107.397 12.5069 107.089 12.2234 106.711C11.7688 105.542 11.5347 104.3 11.5329 103.047C11.5693 102.43 9.57246 93.2159 9.46326 92.5268C9.35406 91.8376 9.68061 85.518 9.68061 85.518Z" fill="#FFC8AF"/>
<path d="M9.75634 82.3626C10.1037 80.6871 10.8452 79.7506 12.5508 80.0416C14.2564 80.3326 14.584 83.1983 14.1108 85.4102C13.6376 87.622 12.8763 91.7953 12.8763 92.1216C12.8763 92.448 13.2029 96.1857 13.2029 96.1857C12.7646 96.5339 12.2555 96.782 11.7111 96.9127C11.1667 97.0434 10.6004 97.0536 10.0517 96.9424C9.67846 95.4601 9.3875 93.9583 9.18016 92.4438C9.10424 89.0735 9.29692 85.7024 9.75634 82.3626Z" fill="#41AAFF"/>
<path d="M13.1311 95.3323C12.6919 95.7252 12.1598 95.9996 11.5849 96.1297C11.01 96.2597 10.4114 96.2411 9.84576 96.0754C9.77508 96.3165 9.75664 96.5699 9.79167 96.8186C9.81501 97.0612 9.90302 97.2931 10.0465 97.4901C10.6276 97.6555 11.2415 97.669 11.8294 97.5292C12.4172 97.3894 12.9593 97.1011 13.4036 96.6918C13.4321 96.4174 13.4073 96.14 13.3308 95.8749C13.286 95.6867 13.2189 95.5046 13.1311 95.3323Z" fill="#41AAFF"/>
<path d="M19.9204 76.2685C20.6089 77.1505 21.2278 78.0846 21.7716 79.0624C22.4656 80.3768 22.8736 81.8231 22.9686 83.3063C22.9686 84.0141 23.5854 91.4875 23.913 94.0444C24.2406 96.6014 24.8209 100.013 24.8209 100.013C24.8209 100.013 25.9649 100.285 25.5291 96.2033C25.0933 92.1215 24.1137 87.8236 24.1678 86.2458C24.2218 84.6679 25.2026 84.1773 25.0934 82.5995C24.9842 81.0217 22.7159 75.9795 21.7726 75.4349C21.2147 75.1101 20.5879 74.9217 19.9433 74.885L19.9204 76.2685Z" fill="#41AAFF"/>
<path d="M19.9204 76.2685C20.2077 76.3544 20.4653 76.5189 20.6641 76.7433C20.863 76.9677 20.9951 77.2432 21.0457 77.5386C21.1702 77.098 21.1575 76.63 21.0093 76.1968C20.7487 75.6902 20.3853 75.2434 19.9422 74.885L19.9204 76.2685Z" fill="#4EC4AE"/>
<path d="M21.391 65.8379C20.9157 67.015 20.2079 68.0844 19.3098 68.9819C18.4117 69.8795 17.3418 70.587 16.1639 71.062C16.1639 71.062 15.644 69.2669 14.8307 69.8386C14.6768 69.9205 14.5413 70.033 14.4326 70.1692C14.3238 70.3054 14.244 70.4623 14.1981 70.6304C14.1523 70.7986 14.1413 70.9742 14.1658 71.1468C14.1903 71.3193 14.2499 71.485 14.3408 71.6336C14.6404 72.0962 15.0064 72.7125 15.7084 72.5691C15.7084 72.5691 15.7688 75.7975 15.7303 76.3972C15.6918 76.997 12.5448 78.2474 12.5448 78.2474C12.5448 78.2474 11.9738 70.2117 12.9171 67.0561C13.8604 63.9004 16.1119 63.4639 17.8175 63.9378C19.1019 64.3779 20.3081 65.0193 21.391 65.8379Z" fill="#282828"/>
<path d="M16.272 63.8517C16.8686 63.5531 17.5275 63.4 18.1947 63.4049C18.8619 63.4098 19.5184 63.5725 20.1106 63.8797C20.5676 64.0745 20.9797 64.3608 21.3216 64.7211C21.6634 65.0813 21.9277 65.5078 22.0981 65.9741C22.153 66.6919 22.1209 67.4136 22.0024 68.1236C21.9293 67.511 21.8251 66.9026 21.6904 66.3005C21.5541 65.865 21.3908 65.838 21.3908 65.838C20.61 65.2754 19.7863 64.775 18.9271 64.3412C18.1155 63.9033 17.1865 63.732 16.272 63.8517Z" fill="#303030"/>
<g style="mix-blend-mode:screen">
<g style="mix-blend-mode:screen">
<path d="M175.754 58.2179C175.149 58.2313 174.554 58.0657 174.044 57.7419C173.389 57.3481 172.81 56.8409 172.333 56.2441C170.589 56.0279 169.353 57.27 169.353 59.5629V59.7937C170.515 61.7284 172.124 63.3574 174.044 64.5448C174.718 65.0188 175.495 65.3259 176.311 65.4409C177.127 65.5558 177.959 65.4753 178.737 65.2059V64.9782C178.598 62.4372 177.537 60.034 175.754 58.2179ZM174.044 50.0991C172.338 49.1148 170.955 49.9141 170.955 51.8817C171.013 52.9528 171.323 53.9951 171.86 54.924C172.397 55.853 173.145 56.6424 174.044 57.2284C175.752 58.2138 177.133 57.4134 177.133 55.4458C177.075 54.3746 176.765 53.3321 176.228 52.4031C175.691 51.4741 174.942 50.6847 174.043 50.0991H174.044Z" fill="#41AAFF"/>
</g>
</g>
<g style="mix-blend-mode:screen">
<g style="mix-blend-mode:screen">
<g style="mix-blend-mode:screen">
<g style="mix-blend-mode:screen">
<path d="M129.649 52.1054L117.749 45.2391C117.579 45.1279 117.438 44.9783 117.336 44.8022C117.234 44.6261 117.176 44.4286 117.165 44.2256V35.5663C117.165 35.1932 117.427 35.0466 117.749 35.2285L129.649 42.0948C129.819 42.206 129.961 42.3557 130.063 42.5318C130.164 42.7078 130.223 42.9053 130.234 43.1083V51.7676C130.235 52.1407 129.972 52.2925 129.649 52.1054ZM118.335 44.2267L129.065 50.4174V43.1083L118.337 36.9175L118.335 44.2267Z" fill="#41AAFF"/>
</g>
</g>
</g>
<g style="mix-blend-mode:screen">
<g style="mix-blend-mode:screen">
<g style="mix-blend-mode:screen">
<path d="M123.699 45.4822C123.552 45.3922 123.427 45.2699 123.334 45.1246L117.386 36.2221C117.133 35.8438 117.091 35.3906 117.292 35.2201C117.493 35.0497 117.862 35.2097 118.115 35.587L123.699 43.9439L129.284 42.0314C129.537 41.9451 129.908 42.206 130.107 42.6134C130.306 43.0209 130.267 43.4231 130.013 43.5084L124.063 45.5456C124.002 45.5613 123.937 45.5638 123.875 45.5528C123.812 45.5419 123.752 45.5178 123.699 45.4822Z" fill="#41AAFF"/>
</g>
</g>
</g>
</g>
<g style="mix-blend-mode:screen">
<g style="mix-blend-mode:screen">
<g style="mix-blend-mode:screen">
<path d="M127.37 26.9994L121.863 20.1528V27.4911L127.37 26.9994Z" fill="#41AAFF"/>
</g>
</g>
<g style="mix-blend-mode:screen">
<g style="mix-blend-mode:screen">
<path d="M122.727 26.2875L116.883 22.9156V18.9814L122.727 22.3533V26.2875Z" fill="#41AAFF"/>
</g>
</g>
</g>
</svg>
